<svg version="1.1" id="Layer_1" xmlns="http://www.w3.org/2000/svg" xmlns:xlink="http://www.w3.org/1999/xlink" x="0px" y="0px"
	 width="100%" viewBox="0 0 1024 512" enable-background="new 0 0 1024 512" xml:space="preserve">
<path fill="#FEFFFF" opacity="1.000000" stroke="none" 
	d="
M601.000000,513.000000 
	C400.699158,513.000000 200.898315,513.000000 1.048740,513.000000 
	C1.048740,342.393585 1.048740,171.787155 1.048740,1.090366 
	C342.217560,1.090366 683.435120,1.090366 1024.826416,1.090366 
	C1024.826416,171.666534 1024.826416,342.333252 1024.826416,513.000000 
	C883.787048,513.000000 742.643494,513.000000 601.000000,513.000000 
M246.395889,162.223419 
	C245.801651,161.653336 245.147781,161.133240 244.621857,160.505890 
	C230.209702,143.313690 212.413193,132.284637 189.608582,130.641647 
	C167.653076,129.059814 148.671677,135.850433 134.320312,152.721710 
	C117.599937,172.377960 113.835648,195.658691 118.767776,220.340256 
	C123.772118,245.383163 138.524719,265.194122 155.281662,283.546509 
	C176.754852,307.064209 201.889908,326.242706 228.477081,343.558228 
	C234.406830,347.420105 240.829315,350.525360 247.736420,353.984436 
	C257.718201,347.676514 267.937103,341.711212 277.637604,334.996887 
	C307.490906,314.333282 335.266266,291.331696 356.259491,261.246033 
	C371.067413,240.024643 379.416504,217.079056 376.065399,190.431625 
	C370.910919,149.444138 334.573547,123.083618 294.283386,131.712662 
	C274.574524,135.933777 259.535065,147.031311 246.395889,162.223419 
M568.481934,371.819458 
	C588.984558,371.304382 605.448608,363.575043 616.140747,344.990082 
	C616.605347,349.128998 616.505859,353.045776 616.625916,356.955811 
	C616.878662,365.186584 620.428345,368.760834 628.629578,369.107452 
	C631.249634,369.218170 633.878296,369.124725 636.932190,369.124725 
	C636.774719,367.234009 636.662720,365.889343 636.554504,364.590057 
	C621.846313,364.464813 621.620361,364.235413 621.620117,349.964966 
	C621.619812,326.977570 621.688232,303.989899 621.594177,281.002869 
	C621.523926,263.834930 613.482178,251.853958 598.983032,247.801163 
	C587.547424,244.604721 575.869080,244.502563 564.415344,247.704437 
	C547.234009,252.507492 536.308289,266.378937 535.211548,284.127991 
	C535.183777,284.576508 535.474060,285.044647 535.651062,285.617218 
	C537.113953,285.617218 538.510742,285.617218 540.091797,285.617218 
	C540.899475,276.897797 543.240417,269.001007 549.109192,262.573334 
	C559.216187,251.503769 572.447144,249.956329 586.281982,250.792923 
	C606.421875,252.010773 615.097961,260.665924 616.570557,280.554535 
	C617.441467,292.316925 613.768799,298.035950 602.127930,299.920166 
	C590.993042,301.722504 579.628967,302.135498 568.357300,303.057495 
	C558.503967,303.863464 548.652344,304.876678 540.297424,310.762360 
	C529.218140,318.567291 527.035156,330.065155 527.815674,342.645416 
	C528.548035,354.449432 534.214111,363.148712 545.245483,367.130554 
	C552.313354,369.681671 560.070984,370.321930 568.481934,371.819458 
M777.696716,359.393768 
	C759.182800,369.477509 740.151367,371.063202 722.292114,359.190826 
	C705.132874,347.783752 702.693298,329.130096 701.739502,309.643188 
	C735.810303,309.643188 769.214478,309.643188 802.898865,309.643188 
	C803.422119,298.994415 802.171936,289.076538 798.627625,279.685181 
	C791.491272,260.775787 778.420410,248.495407 757.740417,246.058975 
	C735.759094,243.469208 718.263794,251.455322 706.871826,270.485413 
	C693.215515,293.298279 694.134460,317.486206 702.498718,341.816589 
	C705.370239,350.169434 710.527466,357.129730 717.639465,362.500031 
	C733.707642,374.633179 762.675049,375.043304 780.060120,363.569550 
	C793.046326,354.998962 799.715454,342.874176 801.389648,327.628418 
	C797.674133,326.253387 796.370789,327.411285 795.737854,330.891327 
	C793.629395,342.483643 788.221802,352.169708 777.696716,359.393768 
M827.932007,296.584320 
	C830.347046,298.040649 832.596375,299.996857 835.207275,300.862549 
	C844.191956,303.841644 853.331970,306.347992 862.358215,309.206970 
	C872.461975,312.407288 882.908813,314.926208 892.461365,319.350281 
	C901.716064,323.636414 904.741333,332.418060 903.392639,342.496735 
	C902.233765,351.156921 897.233643,357.196259 889.760803,361.056030 
	C874.338013,369.022125 858.252563,368.791931 842.255188,363.310303 
	C829.073181,358.793304 822.533936,348.677612 821.081055,335.064758 
	C820.837646,332.784332 820.705627,330.492004 820.503845,327.976227 
	C818.845520,327.976227 817.444214,327.976227 815.680237,327.976227 
	C815.731873,342.734497 818.579346,356.514160 832.170349,363.957275 
	C852.450989,375.063934 873.773376,375.268951 894.302856,364.278320 
	C905.079956,358.508667 909.378235,348.214661 908.708862,336.064392 
	C908.057129,324.233032 901.213928,316.866241 890.845825,312.328705 
	C887.661926,310.935272 884.316711,309.853516 880.966980,308.906097 
	C867.679565,305.147919 854.286621,301.744446 841.080200,297.725128 
	C832.092041,294.989655 826.176575,289.105225 825.541260,279.107178 
	C824.930969,269.503174 828.046082,261.407227 836.645813,256.730896 
	C853.569946,247.528015 870.944946,247.911453 887.552246,257.260193 
	C891.931946,259.725677 895.235352,265.028748 897.676514,269.732758 
	C899.805176,273.834778 900.023132,278.928284 901.163025,283.923950 
	C902.227783,283.923950 903.626953,283.923950 905.470337,283.923950 
	C905.224243,271.118225 902.483643,259.349365 890.765747,252.879456 
	C872.184143,242.619827 852.679688,242.110703 833.975464,252.466812 
	C818.315369,261.137451 815.487305,283.055725 827.932007,296.584320 
M904.825195,166.759399 
	C901.448425,165.203537 898.204590,162.860886 894.665894,162.262817 
	C888.182739,161.167084 882.858521,164.377502 878.478699,169.050781 
	C870.979126,159.415756 860.813965,160.344925 852.457214,167.701477 
	C849.850098,161.929596 845.079651,162.814285 840.312866,163.442398 
	C840.312866,178.480972 840.312866,193.187134 840.312866,207.827484 
	C844.491455,207.827484 848.264160,207.827484 852.560974,207.827484 
	C852.560974,201.439529 852.300537,195.297226 852.660339,189.191467 
	C852.870605,185.621933 853.623962,181.931625 854.949219,178.622559 
	C856.335388,175.161346 859.352905,173.070084 863.382202,173.932999 
	C867.386292,174.790512 867.575134,178.264038 867.743530,181.429581 
	C867.929077,184.916641 867.800476,188.420609 867.802551,191.917206 
	C867.805664,197.179718 867.803406,202.442230 867.803406,207.785294 
	C872.211487,207.785294 875.947815,207.785294 880.152893,207.785294 
	C880.152893,201.521606 879.591125,195.495438 880.333008,189.634277 
	C880.912720,185.053955 882.540588,180.346176 884.859558,176.369629 
	C885.836060,174.694992 889.884277,174.017349 892.349548,174.335037 
	C893.611145,174.497589 895.235168,177.805603 895.358948,179.775909 
	C895.817017,187.074066 895.789062,194.407043 895.799561,201.727158 
	C895.804565,205.223679 897.040771,207.629929 900.719238,207.990234 
	C903.103577,208.223801 905.529358,208.034180 908.015808,208.034180 
	C908.015808,196.959991 908.218994,186.640381 907.889526,176.337830 
	C907.793274,173.325485 906.180908,170.361618 904.825195,166.759399 
M413.216217,161.536865 
	C413.216217,176.956375 413.216217,192.375870 413.216217,208.006027 
	C420.127502,208.006027 426.285553,208.010788 432.443604,208.002853 
	C434.109406,208.000717 435.780792,208.040619 437.440033,207.924393 
	C450.205963,207.030106 458.400726,199.021957 456.568024,187.981430 
	C455.768768,183.166458 452.280365,178.797882 450.013214,174.226562 
	C449.153595,174.040680 449.695801,173.456345 450.205902,172.845230 
	C458.789581,162.561935 454.304535,149.024460 441.191681,146.343033 
	C437.002991,145.486465 432.574707,145.639557 428.254578,145.617142 
	C413.216400,145.539062 413.216156,145.586792 413.216217,161.536865 
M702.654785,225.288544 
	C715.284485,222.613678 720.977539,215.722382 721.010498,203.053741 
	C721.022156,198.557053 721.013000,194.060303 721.013062,189.563583 
	C721.013123,180.791107 721.013062,172.018646 721.013062,162.447266 
	C717.436462,162.950836 714.399536,163.450424 711.344299,163.780121 
	C709.652466,163.962677 707.667114,164.437531 706.262207,163.797256 
	C693.725159,158.083191 680.048157,164.328079 677.484192,177.613373 
	C676.596130,182.214951 676.711487,187.333755 677.727600,191.914825 
	C680.160645,202.884094 690.253052,208.983337 701.266541,206.792297 
	C703.440552,206.359802 705.516052,205.432129 707.719971,204.705444 
	C707.352417,210.483047 704.650940,213.658112 699.189697,213.870346 
	C695.774841,214.003067 692.224060,213.400177 688.906433,212.495804 
	C685.603699,211.595505 683.797363,212.579773 682.664978,215.553452 
	C681.965637,217.389740 681.238220,219.215332 680.554382,220.966400 
	C686.903809,225.130005 693.184570,226.413376 702.654785,225.288544 
M496.037659,253.454590 
	C475.475098,239.560059 437.100098,242.238190 420.891571,272.889374 
	C412.396912,288.953247 410.416351,306.088196 412.891876,323.839294 
	C417.409485,356.233459 442.483673,375.340118 474.786957,371.180145 
	C497.364044,368.272736 514.952759,349.535248 514.884277,328.220825 
	C513.488831,328.220825 512.092834,328.220825 510.651459,328.220825 
	C509.922546,331.515778 509.516235,334.673126 508.520721,337.632294 
	C503.144623,353.613068 491.876526,363.117432 475.462921,366.028351 
	C456.618103,369.370514 440.170654,364.634613 428.491760,348.739624 
	C415.471252,331.018677 414.604340,310.909088 419.612793,290.433807 
	C424.566284,270.183105 436.115570,255.472916 457.759979,251.533600 
	C483.035950,246.933304 503.815674,257.917725 508.853821,282.378479 
	C509.623596,286.115631 511.766998,284.952789 514.336975,284.834747 
	C512.808777,271.652954 506.932983,261.512146 496.037659,253.454590 
M563.026550,166.500168 
	C563.026550,180.264328 563.026550,194.028488 563.026550,207.848648 
	C567.731750,207.848648 571.822998,207.848648 576.508057,207.848648 
	C576.508057,201.700790 576.508057,195.802887 576.508057,189.904984 
	C576.974548,189.646622 577.441040,189.388275 577.907471,189.129913 
	C579.123108,190.346268 580.640259,191.382629 581.494873,192.814453 
	C583.624329,196.382431 585.122314,200.367554 587.528259,203.714813 
	C588.915588,205.644943 591.416321,207.447296 593.697571,207.905762 
	C597.174805,208.604538 600.896057,208.088821 605.104126,208.088821 
	C600.272339,199.542206 595.736450,191.519104 591.318848,183.705063 
	C595.991394,176.728668 600.391052,170.159821 604.771606,163.619492 
	C594.910583,161.054504 587.639343,163.148636 583.877136,172.798111 
	C583.461914,173.863144 582.848816,175.034348 581.977966,175.697083 
	C580.541260,176.790588 578.819275,177.509293 577.033691,178.486603 
	C576.560730,177.024704 576.376892,176.719238 576.375366,176.412872 
	C576.337402,168.751465 576.334351,161.089859 576.291443,153.428497 
	C576.255554,147.012772 575.064392,145.781006 568.778992,145.612885 
	C566.984802,145.564880 565.188232,145.605515 563.026550,145.605515 
	C563.026550,152.573517 563.026550,159.036896 563.026550,166.500168 
M646.141724,164.555954 
	C644.932678,165.420883 643.723572,166.285828 642.392090,167.238358 
	C639.407532,161.570541 634.521973,162.853256 629.651123,163.281876 
	C629.651123,178.318588 629.651123,193.055649 629.651123,207.748337 
	C634.026978,207.748337 638.079895,207.748337 642.411438,207.748337 
	C642.411438,200.905823 641.959595,194.382431 642.583740,187.963699 
	C642.948364,184.213882 644.194946,179.866150 646.612732,177.220108 
	C648.482910,175.173325 652.882935,174.554733 655.965393,174.921753 
	C657.248779,175.074539 658.735596,179.388947 658.902832,181.892960 
	C659.323608,188.193359 658.943298,194.542618 659.079956,200.868073 
	C659.193359,206.114258 661.221130,207.989502 666.443542,208.108154 
	C668.254822,208.149292 670.067810,208.114731 671.867676,208.114731 
	C671.867676,196.473938 672.276489,185.182327 671.695740,173.941849 
	C671.404053,168.295837 667.740723,163.517334 661.820557,162.858704 
	C656.921509,162.313690 651.813416,163.648590 646.141724,164.555954 
M464.312714,171.900955 
	C463.672943,173.065598 462.961578,174.197083 462.404633,175.400055 
	C457.211700,186.616455 461.729828,200.610794 472.259430,205.997482 
	C484.348480,212.181946 498.569916,208.423950 504.941803,197.361206 
	C510.942932,186.942184 507.986023,173.118927 498.310120,166.149094 
	C490.217926,160.320023 473.306244,159.434540 464.312714,171.900955 
M513.629761,174.265961 
	C512.866394,176.801315 511.796631,179.288757 511.391296,181.880127 
	C509.369049,194.809341 517.023315,205.768723 529.784546,208.471893 
	C542.164856,211.094360 554.374451,204.123825 557.702393,192.533340 
	C561.019775,180.979584 555.963989,168.958435 545.815552,164.269928 
	C534.187622,158.897903 521.083618,162.733856 513.629761,174.265961 
M824.256470,165.097427 
	C821.924011,164.245148 819.650024,163.139709 817.248901,162.584412 
	C806.810486,160.170410 796.377869,164.365829 791.198669,172.888580 
	C786.197144,181.118958 786.982483,193.494324 793.092407,200.535400 
	C799.747986,208.205231 808.273376,210.444656 817.903015,208.153091 
	C827.360962,205.902374 833.342529,199.809875 835.028381,190.160568 
	C836.814087,179.939270 833.740967,171.461288 824.256470,165.097427 
M259.313416,369.026703 
	C244.376968,369.362061 229.429214,369.452545 214.509109,370.141785 
	C207.616272,370.460205 200.735321,371.728882 193.939453,373.036774 
	C191.862259,373.436584 190.086044,375.400238 188.171967,376.647736 
	C190.128311,377.714569 191.998215,379.479919 194.055099,379.734436 
	C207.007782,381.337189 219.975662,383.296143 232.989761,383.791565 
	C246.562393,384.308228 260.204285,383.542419 273.793427,382.877777 
	C281.362396,382.507599 288.933655,381.478241 296.405518,380.179749 
	C299.362488,379.665894 302.052490,377.615753 304.864075,376.265137 
	C301.695343,374.850037 298.630280,372.570404 295.339172,372.175720 
	C283.690674,370.778931 271.964905,370.026520 259.313416,369.026703 
M757.420532,191.710724 
	C755.065552,186.779510 755.443665,181.995178 758.472900,177.519135 
	C761.551331,172.970291 770.065002,170.992096 772.383362,174.715485 
	C775.549805,179.800751 779.661987,178.811005 784.003540,178.535065 
	C785.481750,171.101364 784.148743,167.340958 779.202698,164.586685 
	C766.668030,157.606552 749.343384,164.122284 744.438293,177.661407 
	C740.483154,188.578659 745.399109,201.078796 755.278198,206.341431 
	C766.127075,212.120621 782.298462,208.408829 786.780029,200.085907 
	C785.137878,197.406204 783.446655,194.646393 781.733948,191.851639 
	C770.916870,199.964920 764.240845,200.023605 757.420532,191.710724 
M649.886292,346.500000 
	C649.886292,353.942780 649.886292,361.385559 649.886292,369.192078 
	C651.883606,369.012482 653.264526,368.888336 654.891907,368.742004 
	C654.891907,366.550201 654.889954,364.738831 654.892212,362.927490 
	C654.919617,341.283661 654.645325,319.633728 655.079956,297.998077 
	C655.377258,283.200317 659.894592,269.841827 671.658630,259.819702 
	C680.526917,252.264526 691.073364,250.070786 702.605225,250.408737 
	C702.605225,248.745911 702.605225,247.368271 702.605225,245.624893 
	C680.892517,245.366379 664.261719,252.914337 654.767456,273.605408 
	C654.767456,265.236908 654.767456,256.868408 654.767456,248.108261 
	C652.781250,248.328903 651.407410,248.481506 649.886292,248.650482 
	C649.886292,281.245270 649.886292,313.372620 649.886292,346.500000 
M622.086121,171.745453 
	C621.779297,163.452194 619.188599,161.759979 609.225586,163.561462 
	C609.225586,178.209854 609.225586,192.905228 609.225586,207.802765 
	C613.525330,207.802765 617.565247,207.802765 622.087952,207.802765 
	C622.087952,195.895721 622.087952,184.293961 622.086121,171.745453 
M613.196716,143.821686 
	C608.645874,145.225388 606.820618,148.384094 607.738831,152.938187 
	C608.534485,156.884323 611.309143,158.872055 615.239929,158.787064 
	C619.224182,158.700897 621.663757,156.353668 622.472717,152.516129 
	C623.503540,147.626114 619.948120,144.037842 613.196716,143.821686 
M737.133240,207.878983 
	C741.684937,204.029083 742.649414,200.528259 739.967651,196.832016 
	C737.478760,193.401688 734.031677,192.564865 730.275330,194.325195 
	C726.396790,196.142853 725.300049,199.572693 726.369507,203.529037 
	C727.429260,207.449860 731.502747,209.201614 737.133240,207.878983 
z"/>
<path fill="#5AC0EE" opacity="1.000000" stroke="none" 
	d="
M247.024933,353.979004 
	C240.829315,350.525360 234.406830,347.420105 228.477081,343.558228 
	C201.889908,326.242706 176.754852,307.064209 155.281662,283.546509 
	C138.524719,265.194122 123.772118,245.383163 118.767776,220.340256 
	C113.835648,195.658691 117.599937,172.377960 134.320312,152.721710 
	C148.671677,135.850433 167.653076,129.059814 189.608582,130.641647 
	C212.413193,132.284637 230.209702,143.313690 244.621857,160.505890 
	C245.147781,161.133240 245.801651,161.653336 246.742355,162.716141 
	C247.067520,226.798904 247.046234,290.388947 247.024933,353.979004 
z"/>
<path fill="#1E9CD8" opacity="1.000000" stroke="none" 
	d="
M247.380676,353.981689 
	C247.046234,290.388947 247.067520,226.798904 247.099380,162.762817 
	C259.535065,147.031311 274.574524,135.933777 294.283386,131.712662 
	C334.573547,123.083618 370.910919,149.444138 376.065399,190.431625 
	C379.416504,217.079056 371.067413,240.024643 356.259491,261.246033 
	C335.266266,291.331696 307.490906,314.333282 277.637604,334.996887 
	C267.937103,341.711212 257.718201,347.676514 247.380676,353.981689 
z"/>
<path fill="#304C81" opacity="1.000000" stroke="none" 
	d="
M568.000671,371.819153 
	C560.070984,370.321930 552.313354,369.681671 545.245483,367.130554 
	C534.214111,363.148712 528.548035,354.449432 527.815674,342.645416 
	C527.035156,330.065155 529.218140,318.567291 540.297424,310.762360 
	C548.652344,304.876678 558.503967,303.863464 568.357300,303.057495 
	C579.628967,302.135498 590.993042,301.722504 602.127930,299.920166 
	C613.768799,298.035950 617.441467,292.316925 616.570557,280.554535 
	C615.097961,260.665924 606.421875,252.010773 586.281982,250.792923 
	C572.447144,249.956329 559.216187,251.503769 549.109192,262.573334 
	C543.240417,269.001007 540.899475,276.897797 540.091797,285.617218 
	C538.510742,285.617218 537.113953,285.617218 535.651062,285.617218 
	C535.474060,285.044647 535.183777,284.576508 535.211548,284.127991 
	C536.308289,266.378937 547.234009,252.507492 564.415344,247.704437 
	C575.869080,244.502563 587.547424,244.604721 598.983032,247.801163 
	C613.482178,251.853958 621.523926,263.834930 621.594177,281.002869 
	C621.688232,303.989899 621.619812,326.977570 621.620117,349.964966 
	C621.620361,364.235413 621.846313,364.464813 636.554504,364.590057 
	C636.662720,365.889343 636.774719,367.234009 636.932190,369.124725 
	C633.878296,369.124725 631.249634,369.218170 628.629578,369.107452 
	C620.428345,368.760834 616.878662,365.186584 616.625916,356.955811 
	C616.505859,353.045776 616.605347,349.128998 616.140747,344.990082 
	C605.448608,363.575043 588.984558,371.304382 568.000671,371.819153 
M568.873047,308.060272 
	C564.093933,308.682434 559.253784,309.009613 554.547668,309.984192 
	C542.307922,312.518982 534.605591,320.774689 533.084351,332.534454 
	C531.114136,347.764832 535.353699,357.640472 548.002075,362.994385 
	C565.079773,370.223206 582.038086,368.660919 597.373230,358.078888 
	C616.864990,344.628540 618.398804,325.482239 615.884583,300.865356 
	C610.052979,302.542542 604.196045,304.960144 598.120422,305.804321 
	C588.761414,307.104767 579.252563,307.326385 568.873047,308.060272 
z"/>
<path fill="#314C82" opacity="1.000000" stroke="none" 
	d="
M777.999451,359.188232 
	C788.221802,352.169708 793.629395,342.483643 795.737854,330.891327 
	C796.370789,327.411285 797.674133,326.253387 801.389648,327.628418 
	C799.715454,342.874176 793.046326,354.998962 780.060120,363.569550 
	C762.675049,375.043304 733.707642,374.633179 717.639465,362.500031 
	C710.527466,357.129730 705.370239,350.169434 702.498718,341.816589 
	C694.134460,317.486206 693.215515,293.298279 706.871826,270.485413 
	C718.263794,251.455322 735.759094,243.469208 757.740417,246.058975 
	C778.420410,248.495407 791.491272,260.775787 798.627625,279.685181 
	C802.171936,289.076538 803.422119,298.994415 802.898865,309.643188 
	C769.214478,309.643188 735.810303,309.643188 701.739502,309.643188 
	C702.693298,329.130096 705.132874,347.783752 722.292114,359.190826 
	C740.151367,371.063202 759.182800,369.477509 777.999451,359.188232 
M781.477539,261.999969 
	C766.226379,248.961945 744.632568,246.899292 727.449097,256.461060 
	C712.807556,264.608337 701.090454,286.443665 702.514954,304.549835 
	C734.242859,304.549835 765.974426,304.549835 798.069275,304.549835 
	C797.309509,288.502167 793.654846,273.984222 781.477539,261.999969 
z"/>
<path fill="#2F4A81" opacity="1.000000" stroke="none" 
	d="
M827.681763,296.331360 
	C815.487305,283.055725 818.315369,261.137451 833.975464,252.466812 
	C852.679688,242.110703 872.184143,242.619827 890.765747,252.879456 
	C902.483643,259.349365 905.224243,271.118225 905.470337,283.923950 
	C903.626953,283.923950 902.227783,283.923950 901.163025,283.923950 
	C900.023132,278.928284 899.805176,273.834778 897.676514,269.732758 
	C895.235352,265.028748 891.931946,259.725677 887.552246,257.260193 
	C870.944946,247.911453 853.569946,247.528015 836.645813,256.730896 
	C828.046082,261.407227 824.930969,269.503174 825.541260,279.107178 
	C826.176575,289.105225 832.092041,294.989655 841.080200,297.725128 
	C854.286621,301.744446 867.679565,305.147919 880.966980,308.906097 
	C884.316711,309.853516 887.661926,310.935272 890.845825,312.328705 
	C901.213928,316.866241 908.057129,324.233032 908.708862,336.064392 
	C909.378235,348.214661 905.079956,358.508667 894.302856,364.278320 
	C873.773376,375.268951 852.450989,375.063934 832.170349,363.957275 
	C818.579346,356.514160 815.731873,342.734497 815.680237,327.976227 
	C817.444214,327.976227 818.845520,327.976227 820.503845,327.976227 
	C820.705627,330.492004 820.837646,332.784332 821.081055,335.064758 
	C822.533936,348.677612 829.073181,358.793304 842.255188,363.310303 
	C858.252563,368.791931 874.338013,369.022125 889.760803,361.056030 
	C897.233643,357.196259 902.233765,351.156921 903.392639,342.496735 
	C904.741333,332.418060 901.716064,323.636414 892.461365,319.350281 
	C882.908813,314.926208 872.461975,312.407288 862.358215,309.206970 
	C853.331970,306.347992 844.191956,303.841644 835.207275,300.862549 
	C832.596375,299.996857 830.347046,298.040649 827.681763,296.331360 
z"/>
<path fill="#229FDA" opacity="1.000000" stroke="none" 
	d="
M905.044312,167.067474 
	C906.180908,170.361618 907.793274,173.325485 907.889526,176.337830 
	C908.218994,186.640381 908.015808,196.959991 908.015808,208.034180 
	C905.529358,208.034180 903.103577,208.223801 900.719238,207.990234 
	C897.040771,207.629929 895.804565,205.223679 895.799561,201.727158 
	C895.789062,194.407043 895.817017,187.074066 895.358948,179.775909 
	C895.235168,177.805603 893.611145,174.497589 892.349548,174.335037 
	C889.884277,174.017349 885.836060,174.694992 884.859558,176.369629 
	C882.540588,180.346176 880.912720,185.053955 880.333008,189.634277 
	C879.591125,195.495438 880.152893,201.521606 880.152893,207.785294 
	C875.947815,207.785294 872.211487,207.785294 867.803406,207.785294 
	C867.803406,202.442230 867.805664,197.179718 867.802551,191.917206 
	C867.800476,188.420609 867.929077,184.916641 867.743530,181.429581 
	C867.575134,178.264038 867.386292,174.790512 863.382202,173.932999 
	C859.352905,173.070084 856.335388,175.161346 854.949219,178.622559 
	C853.623962,181.931625 852.870605,185.621933 852.660339,189.191467 
	C852.300537,195.297226 852.560974,201.439529 852.560974,207.827484 
	C848.264160,207.827484 844.491455,207.827484 840.312866,207.827484 
	C840.312866,193.187134 840.312866,178.480972 840.312866,163.442398 
	C845.079651,162.814285 849.850098,161.929596 852.457214,167.701477 
	C860.813965,160.344925 870.979126,159.415756 878.478699,169.050781 
	C882.858521,164.377502 888.182739,161.167084 894.665894,162.262817 
	C898.204590,162.860886 901.448425,165.203537 905.044312,167.067474 
z"/>
<path fill="#25427A" opacity="1.000000" stroke="none" 
	d="
M413.216248,161.045639 
	C413.216156,145.586792 413.216400,145.539062 428.254578,145.617142 
	C432.574707,145.639557 437.002991,145.486465 441.191681,146.343033 
	C454.304535,149.024460 458.789581,162.561935 450.205902,172.845230 
	C449.695801,173.456345 449.153595,174.040680 450.013214,174.226562 
	C452.280365,178.797882 455.768768,183.166458 456.568024,187.981430 
	C458.400726,199.021957 450.205963,207.030106 437.440033,207.924393 
	C435.780792,208.040619 434.109406,208.000717 432.443604,208.002853 
	C426.285553,208.010788 420.127502,208.006027 413.216217,208.006027 
	C413.216217,192.375870 413.216217,176.956375 413.216248,161.045639 
M433.348358,197.167984 
	C435.000153,197.093430 437.128052,197.640518 438.205231,196.815613 
	C440.488190,195.067291 443.086212,192.903610 443.970612,190.359482 
	C445.148254,186.971771 443.914307,183.448212 440.256592,181.522827 
	C432.099640,177.229080 425.658936,180.882156 425.657501,189.793289 
	C425.657104,192.071579 425.657440,194.349854 425.657440,197.168076 
	C428.194092,197.168076 430.297394,197.168076 433.348358,197.167984 
M430.696136,155.987930 
	C425.351471,156.896378 423.980164,161.573441 426.565247,170.601913 
	C429.626617,170.601913 432.800751,170.892609 435.900696,170.536743 
	C441.113922,169.938293 443.794250,164.128387 441.241852,159.550262 
	C439.025879,155.575516 435.261871,155.924286 430.696136,155.987930 
z"/>
<path fill="#244179" opacity="1.000000" stroke="none" 
	d="
M702.233521,225.373688 
	C693.184570,226.413376 686.903809,225.130005 680.554382,220.966400 
	C681.238220,219.215332 681.965637,217.389740 682.664978,215.553452 
	C683.797363,212.579773 685.603699,211.595505 688.906433,212.495804 
	C692.224060,213.400177 695.774841,214.003067 699.189697,213.870346 
	C704.650940,213.658112 707.352417,210.483047 707.719971,204.705444 
	C705.516052,205.432129 703.440552,206.359802 701.266541,206.792297 
	C690.253052,208.983337 680.160645,202.884094 677.727600,191.914825 
	C676.711487,187.333755 676.596130,182.214951 677.484192,177.613373 
	C680.048157,164.328079 693.725159,158.083191 706.262207,163.797256 
	C707.667114,164.437531 709.652466,163.962677 711.344299,163.780121 
	C714.399536,163.450424 717.436462,162.950836 721.013062,162.447266 
	C721.013062,172.018646 721.013123,180.791107 721.013062,189.563583 
	C721.013000,194.060303 721.022156,198.557053 721.010498,203.053741 
	C720.977539,215.722382 715.284485,222.613678 702.233521,225.373688 
M701.784912,195.470367 
	C707.113220,193.063614 708.789856,189.734131 708.196167,182.519012 
	C707.846802,178.272263 706.418884,174.186905 701.707031,173.848724 
	C698.635864,173.628326 694.471069,174.498291 692.471924,176.529266 
	C688.695740,180.365540 689.158508,185.679733 691.285522,190.494736 
	C693.117249,194.641174 696.598083,196.168594 701.784912,195.470367 
z"/>
<path fill="#304B81" opacity="1.000000" stroke="none" 
	d="
M496.326996,253.670029 
	C506.932983,261.512146 512.808777,271.652954 514.336975,284.834747 
	C511.766998,284.952789 509.623596,286.115631 508.853821,282.378479 
	C503.815674,257.917725 483.035950,246.933304 457.759979,251.533600 
	C436.115570,255.472916 424.566284,270.183105 419.612793,290.433807 
	C414.604340,310.909088 415.471252,331.018677 428.491760,348.739624 
	C440.170654,364.634613 456.618103,369.370514 475.462921,366.028351 
	C491.876526,363.117432 503.144623,353.613068 508.520721,337.632294 
	C509.516235,334.673126 509.922546,331.515778 510.651459,328.220825 
	C512.092834,328.220825 513.488831,328.220825 514.884277,328.220825 
	C514.952759,349.535248 497.364044,368.272736 474.786957,371.180145 
	C442.483673,375.340118 417.409485,356.233459 412.891876,323.839294 
	C410.416351,306.088196 412.396912,288.953247 420.891571,272.889374 
	C437.100098,242.238190 475.475098,239.560059 496.326996,253.670029 
z"/>
<path fill="#234079" opacity="1.000000" stroke="none" 
	d="
M563.026550,166.000214 
	C563.026550,159.036896 563.026550,152.573517 563.026550,145.605515 
	C565.188232,145.605515 566.984802,145.564880 568.778992,145.612885 
	C575.064392,145.781006 576.255554,147.012772 576.291443,153.428497 
	C576.334351,161.089859 576.337402,168.751465 576.375366,176.412872 
	C576.376892,176.719238 576.560730,177.024704 577.033691,178.486603 
	C578.819275,177.509293 580.541260,176.790588 581.977966,175.697083 
	C582.848816,175.034348 583.461914,173.863144 583.877136,172.798111 
	C587.639343,163.148636 594.910583,161.054504 604.771606,163.619492 
	C600.391052,170.159821 595.991394,176.728668 591.318848,183.705063 
	C595.736450,191.519104 600.272339,199.542206 605.104126,208.088821 
	C600.896057,208.088821 597.174805,208.604538 593.697571,207.905762 
	C591.416321,207.447296 588.915588,205.644943 587.528259,203.714813 
	C585.122314,200.367554 583.624329,196.382431 581.494873,192.814453 
	C580.640259,191.382629 579.123108,190.346268 577.907471,189.129913 
	C577.441040,189.388275 576.974548,189.646622 576.508057,189.904984 
	C576.508057,195.802887 576.508057,201.700790 576.508057,207.848648 
	C571.822998,207.848648 567.731750,207.848648 563.026550,207.848648 
	C563.026550,194.028488 563.026550,180.264328 563.026550,166.000214 
z"/>
<path fill="#24427A" opacity="1.000000" stroke="none" 
	d="
M646.469849,164.353256 
	C651.813416,163.648590 656.921509,162.313690 661.820557,162.858704 
	C667.740723,163.517334 671.404053,168.295837 671.695740,173.941849 
	C672.276489,185.182327 671.867676,196.473938 671.867676,208.114731 
	C670.067810,208.114731 668.254822,208.149292 666.443542,208.108154 
	C661.221130,207.989502 659.193359,206.114258 659.079956,200.868073 
	C658.943298,194.542618 659.323608,188.193359 658.902832,181.892960 
	C658.735596,179.388947 657.248779,175.074539 655.965393,174.921753 
	C652.882935,174.554733 648.482910,175.173325 646.612732,177.220108 
	C644.194946,179.866150 642.948364,184.213882 642.583740,187.963699 
	C641.959595,194.382431 642.411438,200.905823 642.411438,207.748337 
	C638.079895,207.748337 634.026978,207.748337 629.651123,207.748337 
	C629.651123,193.055649 629.651123,178.318588 629.651123,163.281876 
	C634.521973,162.853256 639.407532,161.570541 642.392090,167.238358 
	C643.723572,166.285828 644.932678,165.420883 646.469849,164.353256 
z"/>
<path fill="#24427A" opacity="1.000000" stroke="none" 
	d="
M464.515808,171.600586 
	C473.306244,159.434540 490.217926,160.320023 498.310120,166.149094 
	C507.986023,173.118927 510.942932,186.942184 504.941803,197.361206 
	C498.569916,208.423950 484.348480,212.181946 472.259430,205.997482 
	C461.729828,200.610794 457.211700,186.616455 462.404633,175.400055 
	C462.961578,174.197083 463.672943,173.065598 464.515808,171.600586 
M488.982269,174.213623 
	C482.553223,172.251831 478.157593,173.409622 475.361542,177.801300 
	C472.257782,182.676270 472.597595,189.989105 476.120270,194.130341 
	C480.871979,199.716324 489.771637,198.792862 493.379547,192.339432 
	C496.784363,186.249298 495.386017,179.583832 488.982269,174.213623 
z"/>
<path fill="#24427A" opacity="1.000000" stroke="none" 
	d="
M513.798950,173.929321 
	C521.083618,162.733856 534.187622,158.897903 545.815552,164.269928 
	C555.963989,168.958435 561.019775,180.979584 557.702393,192.533340 
	C554.374451,204.123825 542.164856,211.094360 529.784546,208.471893 
	C517.023315,205.768723 509.369049,194.809341 511.391296,181.880127 
	C511.796631,179.288757 512.866394,176.801315 513.798950,173.929321 
M524.731628,190.356781 
	C527.869995,196.739990 532.634338,199.157257 538.230591,197.205658 
	C544.128296,195.148941 547.024109,189.111710 545.456970,182.140167 
	C544.101074,176.108398 539.326782,172.502060 533.595764,173.180573 
	C527.722534,173.875916 523.835388,178.858658 523.947754,185.657700 
	C523.969421,186.970596 524.280273,188.278702 524.731628,190.356781 
z"/>
<path fill="#249FDA" opacity="1.000000" stroke="none" 
	d="
M824.570923,165.292984 
	C833.740967,171.461288 836.814087,179.939270 835.028381,190.160568 
	C833.342529,199.809875 827.360962,205.902374 817.903015,208.153091 
	C808.273376,210.444656 799.747986,208.205231 793.092407,200.535400 
	C786.982483,193.494324 786.197144,181.118958 791.198669,172.888580 
	C796.377869,164.365829 806.810486,160.170410 817.248901,162.584412 
	C819.650024,163.139709 821.924011,164.245148 824.570923,165.292984 
M813.142029,173.175156 
	C801.703613,172.136917 798.380554,184.642578 802.316162,192.126190 
	C804.325195,195.946564 807.965942,198.565552 812.053040,197.624237 
	C815.390869,196.855499 819.321472,194.565460 821.060425,191.756073 
	C825.391357,184.758835 821.703247,176.274155 813.142029,173.175156 
z"/>
<path fill="#DCDDDC" opacity="1.000000" stroke="none" 
	d="
M259.790894,369.028259 
	C271.964905,370.026520 283.690674,370.778931 295.339172,372.175720 
	C298.630280,372.570404 301.695343,374.850037 304.864075,376.265137 
	C302.052490,377.615753 299.362488,379.665894 296.405518,380.179749 
	C288.933655,381.478241 281.362396,382.507599 273.793427,382.877777 
	C260.204285,383.542419 246.562393,384.308228 232.989761,383.791565 
	C219.975662,383.296143 207.007782,381.337189 194.055099,379.734436 
	C191.998215,379.479919 190.128311,377.714569 188.171982,376.647705 
	C190.086044,375.400238 191.862259,373.436584 193.939453,373.036774 
	C200.735321,371.728882 207.616272,370.460205 214.509109,370.141785 
	C229.429214,369.452545 244.376968,369.362061 259.790894,369.028259 
z"/>
<path fill="#26A0DA" opacity="1.000000" stroke="none" 
	d="
M757.612305,192.052460 
	C764.240845,200.023605 770.916870,199.964920 781.733948,191.851639 
	C783.446655,194.646393 785.137878,197.406204 786.780029,200.085907 
	C782.298462,208.408829 766.127075,212.120621 755.278198,206.341431 
	C745.399109,201.078796 740.483154,188.578659 744.438293,177.661407 
	C749.343384,164.122284 766.668030,157.606552 779.202698,164.586685 
	C784.148743,167.340958 785.481750,171.101364 784.003540,178.535065 
	C779.661987,178.811005 775.549805,179.800751 772.383362,174.715485 
	C770.065002,170.992096 761.551331,172.970291 758.472900,177.519135 
	C755.443665,181.995178 755.065552,186.779510 757.612305,192.052460 
z"/>
<path fill="#2D4980" opacity="1.000000" stroke="none" 
	d="
M649.886292,346.000000 
	C649.886292,313.372620 649.886292,281.245270 649.886292,248.650482 
	C651.407410,248.481506 652.781250,248.328903 654.767456,248.108261 
	C654.767456,256.868408 654.767456,265.236908 654.767456,273.605408 
	C664.261719,252.914337 680.892517,245.366379 702.605225,245.624893 
	C702.605225,247.368271 702.605225,248.745911 702.605225,250.408737 
	C691.073364,250.070786 680.526917,252.264526 671.658630,259.819702 
	C659.894592,269.841827 655.377258,283.200317 655.079956,297.998077 
	C654.645325,319.633728 654.919617,341.283661 654.892212,362.927490 
	C654.889954,364.738831 654.891907,366.550201 654.891907,368.742004 
	C653.264526,368.888336 651.883606,369.012482 649.886292,369.192078 
	C649.886292,361.385559 649.886292,353.942780 649.886292,346.000000 
z"/>
<path fill="#234079" opacity="1.000000" stroke="none" 
	d="
M622.087036,172.218826 
	C622.087952,184.293961 622.087952,195.895721 622.087952,207.802765 
	C617.565247,207.802765 613.525330,207.802765 609.225586,207.802765 
	C609.225586,192.905228 609.225586,178.209854 609.225586,163.561462 
	C619.188599,161.759979 621.779297,163.452194 622.087036,172.218826 
z"/>
<path fill="#28457D" opacity="1.000000" stroke="none" 
	d="
M613.555542,143.762589 
	C619.948120,144.037842 623.503540,147.626114 622.472717,152.516129 
	C621.663757,156.353668 619.224182,158.700897 615.239929,158.787064 
	C611.309143,158.872055 608.534485,156.884323 607.738831,152.938187 
	C606.820618,148.384094 608.645874,145.225388 613.555542,143.762589 
z"/>
<path fill="#29A2DB" opacity="1.000000" stroke="none" 
	d="
M736.785706,208.028397 
	C731.502747,209.201614 727.429260,207.449860 726.369507,203.529037 
	C725.300049,199.572693 726.396790,196.142853 730.275330,194.325195 
	C734.031677,192.564865 737.478760,193.401688 739.967651,196.832016 
	C742.649414,200.528259 741.684937,204.029083 736.785706,208.028397 
z"/>
<path fill="#FCFDFD" opacity="1.000000" stroke="none" 
	d="
M569.340149,308.032959 
	C579.252563,307.326385 588.761414,307.104767 598.120422,305.804321 
	C604.196045,304.960144 610.052979,302.542542 615.884583,300.865356 
	C618.398804,325.482239 616.864990,344.628540 597.373230,358.078888 
	C582.038086,368.660919 565.079773,370.223206 548.002075,362.994385 
	C535.353699,357.640472 531.114136,347.764832 533.084351,332.534454 
	C534.605591,320.774689 542.307922,312.518982 554.547668,309.984192 
	C559.253784,309.009613 564.093933,308.682434 569.340149,308.032959 
z"/>
<path fill="#FCFDFD" opacity="1.000000" stroke="none" 
	d="
M781.750000,262.230286 
	C793.654846,273.984222 797.309509,288.502167 798.069275,304.549835 
	C765.974426,304.549835 734.242859,304.549835 702.514954,304.549835 
	C701.090454,286.443665 712.807556,264.608337 727.449097,256.461060 
	C744.632568,246.899292 766.226379,248.961945 781.750000,262.230286 
z"/>
<path fill="#F8F9FB" opacity="1.000000" stroke="none" 
	d="
M432.874512,197.168030 
	C430.297394,197.168076 428.194092,197.168076 425.657440,197.168076 
	C425.657440,194.349854 425.657104,192.071579 425.657501,189.793289 
	C425.658936,180.882156 432.099640,177.229080 440.256592,181.522827 
	C443.914307,183.448212 445.148254,186.971771 443.970612,190.359482 
	C443.086212,192.903610 440.488190,195.067291 438.205231,196.815613 
	C437.128052,197.640518 435.000153,197.093430 432.874512,197.168030 
z"/>
<path fill="#F6F7FA" opacity="1.000000" stroke="none" 
	d="
M431.138916,155.987274 
	C435.261871,155.924286 439.025879,155.575516 441.241852,159.550262 
	C443.794250,164.128387 441.113922,169.938293 435.900696,170.536743 
	C432.800751,170.892609 429.626617,170.601913 426.565247,170.601913 
	C423.980164,161.573441 425.351471,156.896378 431.138916,155.987274 
z"/>
<path fill="#F7F8FA" opacity="1.000000" stroke="none" 
	d="
M701.408325,195.559540 
	C696.598083,196.168594 693.117249,194.641174 691.285522,190.494736 
	C689.158508,185.679733 688.695740,180.365540 692.471924,176.529266 
	C694.471069,174.498291 698.635864,173.628326 701.707031,173.848724 
	C706.418884,174.186905 707.846802,178.272263 708.196167,182.519012 
	C708.789856,189.734131 707.113220,193.063614 701.408325,195.559540 
z"/>
<path fill="#F8F9FB" opacity="1.000000" stroke="none" 
	d="
M489.318634,174.399658 
	C495.386017,179.583832 496.784363,186.249298 493.379547,192.339432 
	C489.771637,198.792862 480.871979,199.716324 476.120270,194.130341 
	C472.597595,189.989105 472.257782,182.676270 475.361542,177.801300 
	C478.157593,173.409622 482.553223,172.251831 489.318634,174.399658 
z"/>
<path fill="#F6F7FA" opacity="1.000000" stroke="none" 
	d="
M524.594666,189.972900 
	C524.280273,188.278702 523.969421,186.970596 523.947754,185.657700 
	C523.835388,178.858658 527.722534,173.875916 533.595764,173.180573 
	C539.326782,172.502060 544.101074,176.108398 545.456970,182.140167 
	C547.024109,189.111710 544.128296,195.148941 538.230591,197.205658 
	C532.634338,199.157257 527.869995,196.739990 524.594666,189.972900 
z"/>
<path fill="#F7FCFE" opacity="1.000000" stroke="none" 
	d="
M813.534180,173.236542 
	C821.703247,176.274155 825.391357,184.758835 821.060425,191.756073 
	C819.321472,194.565460 815.390869,196.855499 812.053040,197.624237 
	C807.965942,198.565552 804.325195,195.946564 802.316162,192.126190 
	C798.380554,184.642578 801.703613,172.136917 813.534180,173.236542 
z"/>
</svg>