<svg version="1.1" id="Layer_1" xmlns="http://www.w3.org/2000/svg" xmlns:xlink="http://www.w3.org/1999/xlink" x="0px" y="0px"
	 width="100%" viewBox="0 0 707 353" enable-background="new 0 0 707 353" xml:space="preserve">
<path fill="#62C4F1" opacity="1.000000" stroke="none" 
	d="
M407.000000,354.000000 
	C271.365204,354.000000 136.230377,354.000000 1.047783,354.000000 
	C1.047783,236.392944 1.047783,118.785851 1.047783,1.089381 
	C236.551498,1.089381 472.103058,1.089381 707.827271,1.089381 
	C707.827271,118.666466 707.827271,236.333206 707.827271,354.000000 
	C607.785828,354.000000 507.642914,354.000000 407.000000,354.000000 
M457.788330,180.383743 
	C457.600128,180.677628 457.411957,180.971527 457.350891,181.227005 
	C457.350891,181.227005 457.387482,181.354630 456.653778,181.366241 
	C455.766327,180.231384 454.626129,179.210541 454.050659,177.934937 
	C453.186829,176.020309 452.718994,173.927032 451.846375,171.335587 
	C450.933594,171.630524 450.020813,171.925461 449.185364,172.664124 
	C449.185364,172.664124 449.365906,173.076736 449.149048,173.032501 
	C449.149048,173.032501 448.932159,172.988144 448.486969,173.684998 
	C448.326752,174.658981 448.027679,175.632828 448.026581,176.606979 
	C447.999146,201.019882 447.985107,225.432831 448.047943,249.845581 
	C448.051575,251.254654 448.726593,252.661987 449.558563,254.259125 
	C450.191406,254.491562 450.824249,254.723984 452.140533,254.418518 
	C452.433411,252.995819 452.977844,251.573608 452.980621,250.150345 
	C453.011536,234.251114 452.958832,218.351700 452.701385,201.709198 
	C453.665497,197.829895 454.629578,193.950592 455.970459,189.447296 
	C461.964355,177.732574 471.460938,172.077484 485.382965,172.812317 
	C486.030853,172.045059 486.678741,171.277817 487.326630,170.510574 
	C486.345673,170.019821 485.406677,169.230484 484.377075,169.085663 
	C476.314819,167.951889 468.936340,170.577255 461.859406,173.885696 
	C460.439575,174.549454 460.022400,177.357956 459.086334,179.101135 
	C459.086334,179.101135 459.166321,179.049667 458.722076,179.345459 
	C458.518951,179.634354 458.315796,179.923248 458.132751,180.092606 
	C458.132751,180.092606 458.250427,180.121643 457.788330,180.383743 
M542.882507,179.121048 
	C542.882507,179.121048 542.874512,179.196793 542.618286,178.749359 
	C542.336182,178.559753 542.054077,178.370163 541.823364,178.238510 
	C541.823364,178.238510 541.747131,178.252075 541.672424,177.573242 
	C540.766541,177.059036 539.860657,176.544830 538.994263,175.996262 
	C538.994263,175.996262 538.984436,176.047562 538.677246,175.645523 
	C538.390015,175.473145 538.102783,175.300781 537.911804,175.066803 
	C537.911804,175.066803 537.968994,175.165771 537.590271,174.695480 
	C537.044800,174.470551 536.499390,174.245605 535.993896,173.992889 
	C535.993896,173.992889 535.985840,174.040939 535.774353,173.330368 
	C533.658630,172.591537 531.542908,171.852722 529.252258,171.246826 
	C529.252258,171.246826 529.070557,171.123184 528.614990,170.475937 
	C523.357666,169.836227 518.095764,168.712509 512.844910,168.761826 
	C510.234772,168.786331 507.644928,170.963242 505.024811,172.065094 
	C505.024811,172.065094 505.126831,172.047424 504.696045,172.246216 
	C504.420105,172.408859 504.182007,172.615189 503.669495,173.051163 
	C503.669495,173.051163 503.307648,173.085236 502.641663,173.153122 
	C502.112091,173.522232 501.582550,173.891357 500.610291,174.741211 
	C479.698517,189.107880 474.799591,226.317383 491.453033,245.602264 
	C501.256958,256.955292 514.241089,257.831665 527.670654,255.068970 
	C541.164307,252.293030 549.496094,243.678421 552.559570,230.174789 
	C552.845154,228.915848 552.597595,227.535934 552.597595,226.212204 
	C552.081482,225.920807 551.565369,225.629425 551.049255,225.338028 
	C548.305542,239.980179 540.734802,250.230453 526.027649,252.876953 
	C512.079407,255.386841 499.402008,253.196884 490.992188,239.327438 
	C490.525757,238.643433 490.059296,237.959442 489.622467,237.206863 
	C489.622467,237.206863 489.679810,237.254715 489.571991,236.761795 
	C489.370941,236.496399 489.169891,236.231003 488.808472,235.750961 
	C488.808472,235.750961 488.769928,235.485825 488.767212,234.800903 
	C488.446564,234.223831 488.125916,233.646774 487.899811,233.054718 
	C487.899811,233.054718 487.837341,233.127213 487.917267,232.259293 
	C487.578888,229.629074 487.268097,226.994934 486.897186,224.369308 
	C485.566528,214.950348 485.558838,214.948730 495.183014,214.947815 
	C513.326904,214.946106 531.470825,214.944183 549.614746,214.951965 
	C552.319824,214.953125 555.297485,215.240662 555.745178,211.519592 
	C556.540833,204.906052 555.086731,198.749023 551.183167,192.730728 
	C551.067932,192.260254 550.952637,191.789795 550.899353,190.482483 
	C551.102844,187.384598 550.663330,184.688782 546.972961,184.004883 
	C546.972961,184.004883 546.918274,184.095978 546.835938,183.501938 
	C546.434265,183.093369 546.032532,182.684799 545.668457,182.344299 
	C545.668457,182.344299 545.593933,182.322037 545.618347,181.664856 
	C545.003723,181.181320 544.389038,180.697784 543.808533,180.137802 
	C543.808533,180.137802 543.850586,180.210220 543.617126,179.748901 
	C543.346924,179.541306 543.076721,179.333710 542.882507,179.121048 
M345.655579,115.721069 
	C345.365692,115.509201 345.075806,115.297333 344.944275,115.095398 
	C344.944275,115.095398 344.928040,115.253220 344.572601,114.748917 
	C344.020569,114.514404 343.468506,114.279892 342.980652,114.021187 
	C342.980652,114.021187 342.993134,114.088646 342.577087,113.641563 
	C342.006439,113.459076 341.435791,113.276588 340.957947,113.082336 
	C340.957947,113.082336 340.964264,113.175674 340.698669,112.777061 
	C340.143555,112.781830 339.588470,112.786598 338.468475,112.804031 
	C337.956665,112.597565 337.444855,112.391106 336.724976,111.463211 
	C333.589020,109.122581 330.847260,108.814407 328.719421,113.128128 
	C328.719421,113.128128 328.422913,113.093590 327.738586,113.143219 
	C327.168030,113.476768 326.597473,113.810310 325.612183,114.657417 
	C318.974396,120.099831 316.765106,127.961906 319.905823,134.964432 
	C322.774414,141.360153 329.635559,144.906982 337.203552,143.842270 
	C338.672028,143.635666 340.108521,143.201294 342.396423,142.921417 
	C345.913452,143.072037 348.010193,141.673904 347.966980,137.932693 
	C347.966980,137.932693 347.904907,137.995789 348.355835,137.555573 
	C348.553101,137.184998 348.750366,136.814423 348.900787,136.029373 
	C349.076324,135.660278 349.251862,135.291183 350.220093,134.719986 
	C351.546509,134.433746 352.872894,134.147491 354.152527,133.916794 
	C354.152527,133.916794 354.105927,133.861099 354.149597,134.471359 
	C354.460449,134.978226 354.771271,135.485092 355.015778,135.980240 
	C355.015778,135.980240 355.042786,135.918549 355.134827,136.523590 
	C355.487091,137.004379 355.839355,137.485184 356.050629,137.976517 
	C356.050629,137.976517 356.043274,137.835342 356.334473,138.287750 
	C356.611572,138.510971 356.888672,138.734192 357.753387,139.269211 
	C362.043732,142.335068 366.366150,146.418671 371.992401,144.655624 
	C378.634644,142.574234 384.155365,138.561707 386.547607,131.000107 
	C387.363281,131.003326 388.178986,131.006546 389.125977,131.666809 
	C389.082367,132.109177 389.038757,132.551529 388.542023,133.630753 
	C388.686707,136.410477 388.831421,139.190201 389.108887,142.412201 
	C389.213593,142.720001 389.198120,143.021637 389.541504,144.019928 
	C393.092682,143.790451 396.648590,143.614166 400.192169,143.299194 
	C401.261353,143.204163 402.728455,142.119690 403.280090,142.514038 
	C408.803314,146.462448 415.057983,144.553787 421.901794,144.997543 
	C430.994080,144.993088 430.997742,144.993088 431.004883,136.068787 
	C431.009552,130.241150 431.137054,124.408234 430.909668,118.589386 
	C430.848511,117.025009 429.690674,115.503479 429.013489,113.476540 
	C429.013489,113.476540 429.000763,112.988670 429.305725,112.317673 
	C430.445374,108.105797 431.585022,103.893929 432.809875,99.367149 
	C429.743744,98.774101 427.807617,98.129265 425.856506,98.080124 
	C422.121490,97.986038 418.521301,98.879662 418.146698,103.350525 
	C417.827545,107.159546 415.779999,108.224480 412.541138,109.149559 
	C410.499542,109.732674 408.870636,111.760559 406.928955,113.639549 
	C406.679016,114.088753 406.429077,114.537964 405.433716,115.110146 
	C403.300690,115.736832 401.167633,116.363518 399.025391,116.065178 
	C399.021027,112.044334 399.016693,108.023499 399.621094,103.805740 
	C401.613800,99.499863 397.813110,100.696594 395.164703,99.993408 
	C393.135529,100.430351 391.106323,100.867294 389.096130,101.663162 
	C389.096130,101.663162 388.984406,102.004776 388.515656,102.685516 
	C388.515656,109.595711 388.515656,116.505905 388.515656,123.615715 
	C386.070770,121.279930 384.428436,119.710876 382.881012,118.067726 
	C382.881012,118.067726 382.951019,118.165665 382.672699,117.711296 
	C382.402374,117.484108 382.132080,117.256912 381.970428,117.027901 
	C381.970428,117.027901 381.969818,117.136604 381.680023,116.693031 
	C381.406189,116.472870 381.132355,116.252708 380.970947,116.032402 
	C380.970947,116.032402 380.968445,116.144814 380.665161,115.700813 
	C380.378082,115.489441 380.091034,115.278076 379.914246,115.147163 
	C379.914246,115.147163 379.828766,115.253609 379.777283,114.497581 
	C376.452209,112.773811 373.270905,110.469208 369.735718,109.594460 
	C368.187653,109.211380 365.916779,111.749245 363.728516,113.128838 
	C363.728516,113.128838 363.431915,113.103996 362.555786,113.055336 
	C359.594086,112.937996 356.771301,112.998825 357.115051,117.154305 
	C357.115051,117.154305 357.196167,117.074028 356.732269,117.328072 
	C356.493988,117.584602 356.255676,117.841141 356.014832,118.009369 
	C356.014832,118.009369 356.103149,118.007858 355.654541,118.430695 
	C355.477875,119.008202 355.301178,119.585709 355.075165,120.059174 
	C355.075165,120.059174 355.181427,120.014862 354.678192,120.524597 
	C354.482819,121.204819 354.287445,121.885040 354.195160,122.779289 
	C354.195160,122.779289 354.043121,122.961823 353.339355,122.928810 
	C351.871826,121.961304 350.404266,120.993797 348.997894,120.011757 
	C348.997894,120.011757 348.966187,120.066025 348.867462,119.461655 
	C348.498566,118.994102 348.129669,118.526543 347.919739,118.044006 
	C347.919739,118.044006 347.929565,118.203377 347.654968,117.735023 
	C347.378235,117.505585 347.101471,117.276146 346.951996,117.039246 
	C346.951996,117.039246 346.955780,117.166679 346.666992,116.713470 
	C346.389587,116.489975 346.112213,116.266479 345.961975,116.045258 
	C345.961975,116.045258 345.956116,116.172318 345.655579,115.721069 
M300.688354,245.665619 
	C300.415680,245.456207 300.143036,245.246811 299.935699,245.084915 
	C299.935699,245.084915 299.884613,245.147461 299.910583,244.394348 
	C298.621246,243.253738 297.331940,242.113144 295.588196,240.623291 
	C295.347931,240.111298 295.107666,239.599319 295.273132,238.605911 
	C293.812592,236.087158 292.352020,233.568405 290.955872,231.013596 
	C290.955872,231.013596 290.940369,231.085754 290.975708,230.216934 
	C290.617065,220.327133 290.258392,210.437332 289.852356,200.281784 
	C289.852356,200.281784 289.993317,200.051559 290.607178,199.599228 
	C291.027252,197.887848 291.447327,196.176468 291.821442,194.218353 
	C291.821442,194.218353 291.976746,194.021194 292.395325,193.597229 
	C292.581268,193.042450 292.767212,192.487686 292.987488,191.987976 
	C292.987488,191.987976 292.922638,191.990219 293.366364,191.590271 
	C293.562622,191.038834 293.758881,190.487411 293.994690,189.984802 
	C293.994690,189.984802 293.932220,189.991516 294.375610,189.561264 
	C294.561432,189.194016 294.747223,188.826752 294.892181,188.218826 
	C294.892181,188.218826 295.045929,188.029190 295.432648,187.632355 
	C295.597382,187.303207 295.762115,186.974060 296.138733,186.030975 
	C300.910156,182.326447 305.197998,177.413452 310.588593,175.256149 
	C316.015808,173.084213 322.546265,173.094070 328.580505,173.169815 
	C335.097443,173.251648 341.048096,176.165894 345.000854,181.350296 
	C348.513000,185.956772 350.920593,191.405411 354.548492,197.767303 
	C354.884857,190.384995 351.868317,185.743439 348.867188,180.461563 
	C348.475403,180.024307 348.083588,179.587067 347.827820,179.125961 
	C347.827820,179.125961 347.839386,179.263626 347.599335,178.780365 
	C347.317261,178.563812 347.035217,178.347260 346.893036,178.138077 
	C346.893036,178.138077 346.875366,178.277023 346.575958,177.764557 
	C346.063477,177.501205 345.550964,177.237839 345.003265,177.003189 
	C345.003265,177.003189 345.024811,176.964066 344.966064,176.249268 
	C343.876099,175.120163 342.987854,173.590088 341.664734,172.924347 
	C329.253571,166.679459 316.591705,167.792969 304.054901,172.369446 
	C302.340271,172.995346 301.406189,175.759552 299.720154,178.031143 
	C296.515930,182.007141 293.311707,185.983124 289.646271,190.429825 
	C289.457367,191.050415 289.268433,191.671021 289.068634,192.635727 
	C289.068634,192.635727 288.904968,192.938629 288.243958,193.237457 
	C287.842133,194.846802 287.440277,196.456161 287.002319,198.015198 
	C287.002319,198.015198 287.064117,198.010757 286.441986,198.417130 
	C286.054321,198.941742 285.332062,199.464005 285.328369,199.991318 
	C285.255920,210.334091 285.188263,220.679016 285.392639,231.018112 
	C285.411407,231.968445 287.275421,232.882324 288.239899,233.877731 
	C288.239899,233.877731 288.178131,233.831085 288.089844,234.624481 
	C289.129517,236.370819 290.169189,238.117157 291.135132,239.934555 
	C291.135132,239.934555 291.152435,239.833618 291.083466,240.616394 
	C292.091095,241.721252 293.098694,242.826096 294.047211,243.968628 
	C294.047211,243.968628 294.020264,243.903931 294.297638,244.335052 
	C294.559845,244.551315 294.822052,244.767578 295.014099,244.986053 
	C295.014099,244.986053 295.016174,244.915878 295.299591,245.348022 
	C295.567505,245.561081 295.835388,245.774139 296.596344,246.237549 
	C297.067474,246.795441 297.538635,247.353333 298.300079,248.340042 
	C298.572235,248.549866 298.844360,248.759674 299.023712,248.966080 
	C299.023712,248.966080 299.029510,248.873428 299.331573,249.306992 
	C299.616608,249.510498 299.901672,249.714020 300.049316,249.899872 
	C300.049316,249.899872 300.072906,249.763382 300.418121,250.259735 
	C300.953552,250.504745 301.489014,250.749756 301.997437,251.008499 
	C301.997437,251.008499 301.997772,250.978241 302.314117,251.374512 
	C302.595642,251.559021 302.877136,251.743515 303.032623,251.922485 
	C303.032623,251.922485 303.042786,251.796738 303.493866,252.301773 
	C304.128540,252.498398 304.763245,252.695007 306.085663,252.989182 
	C329.778778,262.798187 354.624603,249.781158 354.404877,226.576004 
	C351.509918,237.419830 346.383331,246.548477 335.728485,250.848190 
	C324.819092,255.250626 314.069183,255.124405 303.616821,247.853348 
	C303.083557,247.563644 302.550293,247.273941 302.000000,247.000610 
	C302.000000,247.000610 302.011169,246.980865 301.710632,246.589890 
	C301.480194,246.348694 301.212952,246.159454 300.981506,246.020523 
	C300.981506,246.020523 300.981415,246.093094 300.688354,245.665619 
M471.789490,115.400558 
	C471.587097,115.697975 471.384674,115.995392 471.173981,116.133163 
	C471.173981,116.133163 471.330719,116.164551 470.794006,116.455223 
	C470.537445,116.985527 470.280884,117.515831 469.994781,118.006310 
	C469.994781,118.006310 470.042633,118.018326 469.397491,118.184662 
	C468.260010,119.234344 467.122559,120.284027 465.915771,121.397690 
	C461.849091,111.901588 460.984161,110.431198 453.806885,110.420601 
	C447.513611,110.411324 441.217682,112.164520 434.458832,113.781319 
	C434.302277,118.569740 433.963837,123.361061 434.039764,128.145782 
	C434.117706,133.055435 434.600800,137.958664 435.194824,143.593170 
	C437.833893,143.944458 440.546082,144.802490 443.081665,144.436539 
	C444.379486,144.249237 446.259094,141.906128 446.314362,140.476974 
	C446.468719,136.484283 445.099182,132.342987 445.734833,128.492050 
	C446.119751,126.160149 448.845184,122.895256 450.994995,122.473099 
	C454.506195,121.783607 453.884705,125.540825 453.993683,127.894905 
	C454.169525,131.693146 454.072113,135.509445 454.379272,139.294647 
	C454.678955,142.987366 456.175018,145.234222 460.656036,145.125351 
	C464.924164,145.021652 466.143555,143.122528 466.195679,139.382538 
	C466.216034,137.919830 466.714417,136.463776 467.000000,135.000000 
	C467.000000,135.000000 467.004883,134.994507 467.539795,135.294617 
	C468.396393,135.850693 469.252991,136.406769 470.030640,136.970352 
	C470.030640,136.970352 470.070496,136.901794 470.066925,137.656372 
	C471.969177,139.422699 473.597778,141.815033 475.843109,142.796494 
	C478.635071,144.016907 481.936584,144.071564 485.018005,144.629669 
	C484.992554,144.914810 484.967072,145.199966 484.941620,145.485107 
	C481.299469,145.940384 477.657318,146.395645 473.504883,147.052338 
	C473.077789,147.392685 472.650696,147.733047 471.511444,148.175919 
	C468.828766,149.507050 467.863831,151.033020 470.999908,152.998611 
	C470.999908,152.998611 470.978485,153.036209 471.015228,153.715195 
	C471.250946,157.902512 474.843170,156.077896 476.795105,156.633987 
	C486.597839,159.426697 498.288116,154.546707 499.008301,143.080368 
	C499.009857,134.955994 499.082001,126.830559 498.960541,118.708015 
	C498.932220,116.813591 498.246185,114.929001 497.422211,112.984985 
	C497.422211,112.984985 497.001617,112.842781 496.736847,112.213776 
	C495.542084,112.053261 494.344788,111.909309 493.153015,111.728951 
	C490.295837,111.296555 487.208008,111.392578 484.633545,110.292122 
	C479.089935,107.922485 477.129578,108.377563 474.002655,113.995689 
	C474.002655,113.995689 474.029175,114.014229 473.434235,114.119347 
	C473.000183,114.512100 472.566162,114.904861 472.111359,115.135826 
	C472.111359,115.135826 472.274078,115.147331 471.789490,115.400558 
M145.595474,93.598549 
	C145.064957,93.404892 144.534424,93.211235 143.996368,93.006081 
	C143.996368,93.006081 143.982498,93.006134 143.488846,92.566483 
	C142.633301,92.384926 141.777756,92.203377 140.484451,92.021950 
	C140.484451,92.021950 140.046844,92.010262 139.447479,91.523224 
	C132.740143,91.077644 126.031464,90.312294 119.326096,90.340248 
	C116.554588,90.351799 113.790184,92.064407 111.005424,93.009155 
	C111.005424,93.009155 110.991211,93.020325 110.420975,93.114784 
	C109.954391,93.432922 109.487808,93.751068 108.542015,94.538788 
	C84.761139,107.144859 78.006500,129.767960 83.787956,154.706100 
	C87.624947,171.256805 97.720314,184.462509 109.143364,196.264038 
	C118.999313,206.446579 130.032776,215.619278 141.280289,224.284927 
	C150.706375,231.547241 161.193237,237.432755 171.791901,243.617615 
	C179.748459,238.467163 187.909363,233.603516 195.620895,228.109146 
	C214.107971,214.937332 231.417313,200.463974 244.725235,181.755188 
	C259.103760,161.541351 265.142639,140.113358 254.840302,116.104637 
	C248.302353,100.868515 228.650192,88.924881 213.074066,90.197945 
	C195.580826,91.627701 181.687927,99.241478 170.358063,112.822731 
	C164.565277,107.571892 158.772491,102.321045 152.636566,96.478218 
	C151.425644,95.992561 150.214737,95.506912 148.995346,95.007980 
	C148.995346,95.007980 148.979858,95.005066 148.498535,94.569756 
	C147.663757,94.382210 146.828979,94.194656 146.000000,94.000000 
	C146.000000,94.000000 145.996475,94.008560 145.595474,93.598549 
M307.706787,101.527245 
	C307.386597,101.159370 307.075073,100.479088 306.744934,100.469933 
	C300.621887,100.300133 294.493683,100.093666 288.375549,100.249313 
	C287.598846,100.269073 286.872589,102.272308 286.096375,104.248970 
	C286.096375,117.152611 286.096375,130.056259 286.096375,143.002899 
	C292.652313,143.002899 298.666229,143.513535 304.556854,142.879272 
	C312.719391,142.000397 317.350159,134.687668 314.680908,127.355888 
	C313.770020,124.854012 311.621796,122.802612 310.035187,120.540016 
	C315.661316,112.866241 315.051849,107.592621 307.706787,101.527245 
M379.484894,176.992325 
	C373.267731,182.169159 370.924316,188.990295 371.063995,196.854095 
	C372.345886,196.065079 372.925568,194.963821 373.209625,193.790970 
	C377.858215,174.598648 402.460815,165.572159 418.820984,177.078568 
	C424.652283,181.179779 427.447205,190.380661 426.028107,198.196304 
	C424.546478,206.356262 418.549713,207.450577 412.095245,208.126846 
	C402.335480,209.149460 392.479736,209.537613 382.815399,211.117111 
	C371.390198,212.984390 365.287506,220.851624 365.004547,232.437057 
	C364.701447,244.845978 369.897491,252.311737 381.765076,254.930511 
	C397.235535,258.344299 411.247559,255.877045 422.000366,242.910126 
	C422.634277,242.145676 423.819885,241.838730 424.748779,241.318878 
	C425.241058,242.300751 425.890106,243.238998 426.179138,244.277451 
	C426.440033,245.214752 426.234253,246.270920 426.359375,247.258804 
	C427.173523,253.684402 433.637970,256.565125 439.898560,252.963913 
	C439.208099,252.580719 438.720734,252.114716 438.178558,252.038452 
	C429.041748,250.753311 429.040314,250.764114 429.041656,241.626831 
	C429.044098,225.295029 429.115143,208.962814 429.022614,192.631561 
	C428.968475,183.076370 424.940460,175.356125 415.765686,172.281677 
	C403.465546,168.159927 391.140289,168.415649 379.484894,176.992325 
M616.455750,251.962418 
	C619.624207,248.453964 623.984863,245.453873 625.738281,241.342041 
	C631.059387,228.863907 624.346497,217.843109 610.041321,213.983124 
	C600.411743,211.384781 590.750610,208.880142 581.210327,205.982132 
	C574.888489,204.061783 570.485291,200.108032 569.973755,192.905457 
	C569.429382,185.239456 572.636047,179.713196 579.253174,176.075806 
	C587.166382,171.725937 595.691345,172.145172 604.104431,173.604156 
	C614.923523,175.480392 620.562256,181.839813 622.103333,192.693954 
	C622.267761,193.852036 622.955627,194.935822 623.400696,196.054077 
	C623.911438,195.848724 624.422241,195.643372 624.932983,195.438019 
	C625.067444,187.893036 623.177307,181.042908 616.824951,176.014465 
	C606.503113,167.843735 584.917542,168.127625 574.327026,175.834396 
	C564.711243,182.831863 563.326843,203.142868 578.318970,208.065979 
	C580.212891,208.687866 582.070129,209.433777 583.986023,209.974365 
	C593.734314,212.724854 603.632812,215.025192 613.207886,218.279892 
	C620.144165,220.637665 624.536499,225.814651 624.545349,233.687088 
	C624.554199,241.576370 620.375916,246.747986 613.596619,250.160004 
	C605.818542,254.074707 597.576599,254.172028 589.199219,253.113022 
	C575.963867,251.439880 568.321777,243.634995 566.788025,230.381073 
	C566.637329,229.078598 565.905334,227.843384 565.443115,226.576950 
	C562.647156,237.301590 567.903870,248.225342 577.544556,252.384354 
	C590.198242,257.843140 603.051331,257.890656 616.455750,251.962418 
M607.781677,140.066025 
	C607.792786,137.399643 607.573181,134.706787 607.875244,132.073761 
	C608.227722,129.001328 608.346924,125.552353 609.882385,123.085167 
	C610.952271,121.366074 614.191406,120.594078 616.559509,120.350418 
	C617.204956,120.284004 618.761292,123.609291 618.928162,125.465347 
	C619.299744,129.599045 619.151611,133.790512 619.034790,137.953384 
	C618.950439,140.959030 619.282166,143.123871 623.173157,143.141556 
	C626.941162,143.158676 627.033875,140.935516 627.008972,138.242249 
	C626.965759,133.576294 627.128174,128.905182 626.965515,124.244553 
	C626.818298,120.028145 626.339355,115.736473 621.909424,113.595657 
	C617.393738,111.413406 613.178162,112.510818 609.269470,115.344948 
	C608.490662,115.909622 607.653748,116.394073 606.928040,116.861183 
	C599.547363,111.395821 597.740723,111.286301 590.009460,115.161072 
	C586.920349,114.454895 584.621704,113.929413 582.323059,113.403931 
	C581.855469,115.547890 581.048279,117.681824 580.984680,119.837700 
	C580.802734,125.998611 580.928833,132.168442 580.921143,138.334763 
	C580.918152,140.743134 580.748230,143.037170 584.333557,143.101318 
	C588.173828,143.170074 587.898254,140.744034 588.106079,138.132263 
	C588.472107,133.532578 588.576111,128.772629 589.962280,124.456299 
	C590.591736,122.496193 594.022766,121.435783 596.182922,119.967255 
	C597.452698,122.040817 599.498413,124.000191 599.824036,126.212700 
	C600.424438,130.292389 599.869080,134.529022 600.106323,138.682495 
	C600.188110,140.113266 601.282043,142.713272 601.767639,142.679535 
	C603.772461,142.540131 605.721313,141.595215 607.781677,140.066025 
M158.538773,264.940765 
	C173.638504,264.258026 188.742142,263.646576 203.833725,262.815674 
	C206.095840,262.691101 208.301361,261.538391 210.897476,260.750732 
	C204.054703,252.585556 139.411652,252.371567 130.507050,259.665985 
	C133.918045,263.221832 140.315887,264.465912 158.538773,264.940765 
M576.501099,125.243301 
	C575.927246,123.684128 575.482483,122.061874 574.756531,120.577034 
	C572.032349,115.004272 565.017212,111.499359 558.931763,112.570778 
	C551.133118,113.943817 545.807373,118.917374 545.076538,125.509888 
	C544.152466,133.845444 547.313843,139.743393 554.204285,142.538971 
	C566.192749,147.402924 577.113159,139.387268 576.501099,125.243301 
M514.955811,134.170502 
	C518.177795,143.568008 530.087036,146.142731 538.038208,142.324326 
	C543.442383,139.729065 543.714844,138.087662 540.152222,134.539948 
	C536.131470,135.438950 532.680542,136.745041 529.195862,136.842514 
	C525.559509,136.944214 522.914185,134.481445 522.189026,130.834641 
	C521.361450,126.672592 522.087219,122.754753 526.122253,120.378075 
	C529.267883,118.525246 532.141113,118.325813 535.082031,121.427788 
	C536.174744,122.580399 538.912598,122.173416 540.900208,122.477646 
	C540.895935,120.760208 541.462952,118.730316 540.738953,117.406525 
	C539.885620,115.846245 538.096741,114.426918 536.395264,113.767632 
	C530.176941,111.358086 524.210754,112.265320 519.097290,116.557793 
	C513.760132,121.037987 513.071228,126.980072 514.955811,134.170502 
M508.687805,143.341339 
	C509.602203,141.592819 511.618683,139.439163 511.161285,138.194916 
	C510.543365,136.514008 507.918976,134.419983 506.350983,134.568420 
	C504.836639,134.711746 502.553101,137.392349 502.411743,139.107147 
	C502.136261,142.448624 504.590515,144.006943 508.687805,143.341339 
z"/>
<path fill="#1E9CD7" opacity="1.000000" stroke="none" 
	d="
M171.001343,113.000610 
	C181.687927,99.241478 195.580826,91.627701 213.074066,90.197945 
	C228.650192,88.924881 248.302353,100.868515 254.840302,116.104637 
	C265.142639,140.113358 259.103760,161.541351 244.725235,181.755188 
	C231.417313,200.463974 214.107971,214.937332 195.620895,228.109146 
	C187.909363,233.603516 179.748459,238.467163 171.433929,243.314117 
	C171.051071,199.673965 171.026199,156.337280 171.001343,113.000610 
z"/>
<path fill="#59C0ED" opacity="1.000000" stroke="none" 
	d="
M170.679703,112.911667 
	C171.026199,156.337280 171.051071,199.673965 171.143173,243.469269 
	C161.193237,237.432755 150.706375,231.547241 141.280289,224.284927 
	C130.032776,215.619278 118.999313,206.446579 109.143364,196.264038 
	C97.720314,184.462509 87.624947,171.256805 83.787956,154.706100 
	C78.006500,129.767960 84.761139,107.144859 109.060455,94.237778 
	C110.049667,93.631294 110.520439,93.325813 110.991211,93.020325 
	C110.991211,93.020325 111.005424,93.009155 111.432930,93.008621 
	C121.193672,90.917625 130.577835,90.265335 140.046844,92.010262 
	C140.046844,92.010262 140.484451,92.021950 140.959473,92.233200 
	C142.283829,92.631683 143.133163,92.818909 143.982498,93.006134 
	C143.982498,93.006134 143.996368,93.006081 144.199402,93.217010 
	C144.933777,93.621483 145.465118,93.815018 145.996475,94.008560 
	C145.996475,94.008560 146.000000,94.000000 146.241684,94.216858 
	C147.315536,94.624176 148.147690,94.814621 148.979858,95.005066 
	C148.979858,95.005066 148.995346,95.007980 149.181671,95.296112 
	C150.571884,96.079559 151.775803,96.574883 152.979706,97.070206 
	C158.772491,102.321045 164.565277,107.571892 170.679703,112.911667 
z"/>
<path fill="#1E497E" opacity="1.000000" stroke="none" 
	d="
M379.760925,176.770691 
	C391.140289,168.415649 403.465546,168.159927 415.765686,172.281677 
	C424.940460,175.356125 428.968475,183.076370 429.022614,192.631561 
	C429.115143,208.962814 429.044098,225.295029 429.041656,241.626831 
	C429.040314,250.764114 429.041748,250.753311 438.178558,252.038452 
	C438.720734,252.114716 439.208099,252.580719 439.898560,252.963913 
	C433.637970,256.565125 427.173523,253.684402 426.359375,247.258804 
	C426.234253,246.270920 426.440033,245.214752 426.179138,244.277451 
	C425.890106,243.238998 425.241058,242.300751 424.748779,241.318878 
	C423.819885,241.838730 422.634277,242.145676 422.000366,242.910126 
	C411.247559,255.877045 397.235535,258.344299 381.765076,254.930511 
	C369.897491,252.311737 364.701447,244.845978 365.004547,232.437057 
	C365.287506,220.851624 371.390198,212.984390 382.815399,211.117111 
	C392.479736,209.537613 402.335480,209.149460 412.095245,208.126846 
	C418.549713,207.450577 424.546478,206.356262 426.028107,198.196304 
	C427.447205,190.380661 424.652283,181.179779 418.820984,177.078568 
	C402.460815,165.572159 377.858215,174.598648 373.209625,193.790970 
	C372.925568,194.963821 372.345886,196.065079 371.063995,196.854095 
	C370.924316,188.990295 373.267731,182.169159 379.760925,176.770691 
M379.355804,214.966324 
	C378.819946,215.286057 378.284119,215.605804 377.081482,216.034073 
	C369.398834,220.848572 366.307251,228.596634 368.131622,238.463867 
	C369.464752,245.674164 375.697388,251.356415 384.107941,252.976974 
	C399.939728,256.027466 419.585144,250.573059 425.571930,228.507370 
	C425.889984,221.251785 426.208038,213.996216 426.574951,205.626022 
	C424.243713,207.300919 423.091461,208.128769 421.987213,208.995850 
	C421.987213,208.995850 421.993866,208.934250 421.374817,208.962814 
	C420.855042,209.248291 420.335236,209.533752 419.878326,209.751648 
	C419.878326,209.751648 419.806580,209.693573 418.985535,209.782990 
	C407.673981,210.943253 396.362457,212.103516 384.492767,213.268341 
	C383.995056,213.499054 383.497375,213.729767 382.325012,213.945618 
	C381.526917,214.280502 380.728851,214.615402 379.984772,214.986816 
	C379.984772,214.986816 379.993530,214.922211 379.355804,214.966324 
z"/>
<path fill="#1E497E" opacity="1.000000" stroke="none" 
	d="
M616.116760,252.111969 
	C603.051331,257.890656 590.198242,257.843140 577.544556,252.384354 
	C567.903870,248.225342 562.647156,237.301590 565.443115,226.576950 
	C565.905334,227.843384 566.637329,229.078598 566.788025,230.381073 
	C568.321777,243.634995 575.963867,251.439880 589.199219,253.113022 
	C597.576599,254.172028 605.818542,254.074707 613.596619,250.160004 
	C620.375916,246.747986 624.554199,241.576370 624.545349,233.687088 
	C624.536499,225.814651 620.144165,220.637665 613.207886,218.279892 
	C603.632812,215.025192 593.734314,212.724854 583.986023,209.974365 
	C582.070129,209.433777 580.212891,208.687866 578.318970,208.065979 
	C563.326843,203.142868 564.711243,182.831863 574.327026,175.834396 
	C584.917542,168.127625 606.503113,167.843735 616.824951,176.014465 
	C623.177307,181.042908 625.067444,187.893036 624.932983,195.438019 
	C624.422241,195.643372 623.911438,195.848724 623.400696,196.054077 
	C622.955627,194.935822 622.267761,193.852036 622.103333,192.693954 
	C620.562256,181.839813 614.923523,175.480392 604.104431,173.604156 
	C595.691345,172.145172 587.166382,171.725937 579.253174,176.075806 
	C572.636047,179.713196 569.429382,185.239456 569.973755,192.905457 
	C570.485291,200.108032 574.888489,204.061783 581.210327,205.982132 
	C590.750610,208.880142 600.411743,211.384781 610.041321,213.983124 
	C624.346497,217.843109 631.059387,228.863907 625.738281,241.342041 
	C623.984863,245.453873 619.624207,248.453964 616.116760,252.111969 
z"/>
<path fill="#1D4078" opacity="1.000000" stroke="none" 
	d="
M307.916046,102.313980 
	C315.051849,107.592621 315.661316,112.866241 310.035187,120.540016 
	C311.621796,122.802612 313.770020,124.854012 314.680908,127.355888 
	C317.350159,134.687668 312.719391,142.000397 304.556854,142.879272 
	C298.666229,143.513535 292.652313,143.002899 286.096375,143.002899 
	C286.096375,130.056259 286.096375,117.152611 286.429077,103.571365 
	C288.061798,102.278687 289.381348,101.100838 290.658447,101.145248 
	C296.417542,101.345573 302.164642,101.892174 307.916046,102.313980 
M305.041382,115.033813 
	C305.041382,115.033813 305.075500,115.106934 305.597931,114.611092 
	C305.434082,113.247498 305.270233,111.883904 305.089203,110.234497 
	C305.089203,110.234497 304.900726,110.018951 304.659515,109.346413 
	C301.556152,108.932922 297.276947,107.113457 295.654327,108.470512 
	C293.731873,110.078362 294.099243,114.424126 293.474152,117.583221 
	C293.954865,118.007355 294.435577,118.431480 294.916290,118.855614 
	C298.057831,118.033836 301.199402,117.212051 304.325134,116.252846 
	C304.325134,116.252846 304.187408,116.265465 304.736511,116.085434 
	C304.864532,115.729668 304.992523,115.373901 305.041382,115.033813 
M293.857208,130.607056 
	C293.894501,136.983154 294.867493,137.738510 301.608765,136.685928 
	C305.464691,136.083878 307.625458,134.024246 307.288422,129.954208 
	C306.884888,125.081779 303.340790,124.459694 299.451050,124.237007 
	C295.511078,124.011436 293.409637,125.515442 293.857208,130.607056 
z"/>
<path fill="#1C487D" opacity="1.000000" stroke="none" 
	d="
M491.016357,239.991669 
	C499.402008,253.196884 512.079407,255.386841 526.027649,252.876953 
	C540.734802,250.230453 548.305542,239.980179 551.049255,225.338028 
	C551.565369,225.629425 552.081482,225.920807 552.597595,226.212204 
	C552.597595,227.535934 552.845154,228.915848 552.559570,230.174789 
	C549.496094,243.678421 541.164307,252.293030 527.670654,255.068970 
	C514.241089,257.831665 501.256958,256.955292 491.453033,245.602264 
	C474.799591,226.317383 479.698517,189.107880 501.149475,174.429230 
	C502.228333,173.773254 502.768005,173.429245 503.307648,173.085236 
	C503.307648,173.085236 503.669495,173.051163 504.079346,172.925446 
	C504.701752,172.548965 504.914276,172.298187 505.126831,172.047424 
	C505.126831,172.047424 505.024811,172.065094 505.440063,172.074554 
	C513.498657,169.466675 521.256836,169.624390 529.070557,171.123184 
	C529.070557,171.123184 529.252258,171.246826 529.613647,171.437561 
	C531.978577,172.432510 533.982239,173.236725 535.985840,174.040939 
	C535.985840,174.040939 535.993896,173.992889 536.160339,174.240692 
	C536.874207,174.714264 537.421570,174.940018 537.968994,175.165771 
	C537.968994,175.165771 537.911804,175.066803 537.986694,175.329834 
	C538.369263,175.744415 538.676819,175.895996 538.984436,176.047562 
	C538.984436,176.047562 538.994263,175.996262 539.134888,176.271484 
	C540.099365,177.115158 540.923279,177.683609 541.747131,178.252075 
	C541.747131,178.252075 541.823364,178.238510 541.898010,178.456299 
	C542.273254,178.848328 542.573914,179.022552 542.874512,179.196777 
	C542.874512,179.196793 542.882507,179.121048 542.937744,179.373077 
	C543.278870,179.820129 543.564758,180.015167 543.850586,180.210205 
	C543.850586,180.210220 543.808533,180.137802 543.891357,180.444260 
	C544.514160,181.274490 545.054016,181.798264 545.593933,182.322037 
	C545.593933,182.322037 545.668457,182.344299 545.731934,182.587067 
	C546.169739,183.251877 546.544006,183.673935 546.918274,184.095978 
	C546.918274,184.095978 546.972961,184.004883 547.020996,184.372253 
	C548.325134,186.932846 549.581238,189.126083 550.837341,191.319336 
	C550.952637,191.789795 551.067932,192.260254 551.399109,193.345245 
	C552.647339,200.082626 553.679626,206.205475 554.860168,213.207794 
	C545.903992,213.207794 538.295166,213.210617 530.686340,213.207169 
	C516.697021,213.200821 502.706696,213.114944 488.719788,213.293488 
	C487.237274,213.312424 484.424561,215.062943 484.512634,215.688690 
	C485.336456,221.541550 486.659058,227.324219 487.837341,233.127213 
	C487.837341,233.127213 487.899811,233.054718 487.866455,233.399780 
	C488.145386,234.325165 488.457672,234.905487 488.769928,235.485825 
	C488.769928,235.485825 488.808472,235.750961 488.917236,236.118881 
	C489.243927,236.742767 489.461884,236.998749 489.679810,237.254715 
	C489.679810,237.254715 489.622467,237.206863 489.658325,237.553040 
	C490.134918,238.596695 490.575623,239.294189 491.016357,239.991669 
M504.971222,175.964432 
	C504.971222,175.964432 504.993591,175.895691 504.348633,175.969879 
	C503.802124,176.285965 503.255585,176.602036 502.062195,177.075363 
	C490.107391,184.962524 485.232941,196.407196 484.702972,210.967819 
	C490.767334,210.967819 496.204987,210.969055 501.642639,210.967575 
	C516.759827,210.963501 531.876953,210.966629 546.994141,210.944031 
	C549.119446,210.940857 551.597229,211.332718 551.483215,207.933334 
	C551.002991,193.620911 543.705627,179.159805 529.669617,174.385330 
	C522.204102,172.447372 514.760803,171.471527 507.252167,174.762680 
	C507.252167,174.762680 507.085236,174.898926 506.445251,174.951569 
	C505.931305,175.280884 505.417328,175.610199 504.971222,175.964432 
z"/>
<path fill="#219CD5" opacity="1.000000" stroke="none" 
	d="
M607.736206,140.506165 
	C605.721313,141.595215 603.772461,142.540131 601.767639,142.679535 
	C601.282043,142.713272 600.188110,140.113266 600.106323,138.682495 
	C599.869080,134.529022 600.424438,130.292389 599.824036,126.212700 
	C599.498413,124.000191 597.452698,122.040817 596.182922,119.967255 
	C594.022766,121.435783 590.591736,122.496193 589.962280,124.456299 
	C588.576111,128.772629 588.472107,133.532578 588.106079,138.132263 
	C587.898254,140.744034 588.173828,143.170074 584.333557,143.101318 
	C580.748230,143.037170 580.918152,140.743134 580.921143,138.334763 
	C580.928833,132.168442 580.802734,125.998611 580.984680,119.837700 
	C581.048279,117.681824 581.855469,115.547890 582.323059,113.403931 
	C584.621704,113.929413 586.920349,114.454895 590.009460,115.161072 
	C597.740723,111.286301 599.547363,111.395821 606.928040,116.861183 
	C607.653748,116.394073 608.490662,115.909622 609.269470,115.344948 
	C613.178162,112.510818 617.393738,111.413406 621.909424,113.595657 
	C626.339355,115.736473 626.818298,120.028145 626.965515,124.244553 
	C627.128174,128.905182 626.965759,133.576294 627.008972,138.242249 
	C627.033875,140.935516 626.941162,143.158676 623.173157,143.141556 
	C619.282166,143.123871 618.950439,140.959030 619.034790,137.953384 
	C619.151611,133.790512 619.299744,129.599045 618.928162,125.465347 
	C618.761292,123.609291 617.204956,120.284004 616.559509,120.350418 
	C614.191406,120.594078 610.952271,121.366074 609.882385,123.085167 
	C608.346924,125.552353 608.227722,129.001328 607.875244,132.073761 
	C607.573181,134.706787 607.792786,137.399643 607.736206,140.506165 
z"/>
<path fill="#1D4078" opacity="1.000000" stroke="none" 
	d="
M472.223602,148.073395 
	C472.650696,147.733047 473.077789,147.392685 474.164978,147.041870 
	C477.249695,147.393326 479.669312,148.013290 482.100006,148.060547 
	C486.433441,148.144791 489.157440,146.198654 489.426056,140.660782 
	C481.645660,144.428543 475.311249,142.947800 470.070496,136.901794 
	C470.070496,136.901794 470.030640,136.970352 469.983093,136.586487 
	C467.036285,130.123901 467.534760,124.065193 470.042633,118.018326 
	C470.042633,118.018326 469.994781,118.006310 470.247986,117.852859 
	C470.777679,117.187790 471.054199,116.676178 471.330750,116.164551 
	C471.330719,116.164551 471.173981,116.133163 471.443909,116.115417 
	C471.900604,115.780891 472.087341,115.464111 472.274078,115.147331 
	C472.274078,115.147331 472.111359,115.135826 472.407776,115.139748 
	C473.145874,114.767189 473.587524,114.390709 474.029175,114.014236 
	C474.029175,114.014229 474.002655,113.995689 474.383118,113.944916 
	C477.486023,113.338638 480.628723,111.643585 482.844910,112.460884 
	C487.710236,114.255089 492.265472,113.688286 497.001617,112.842781 
	C497.001617,112.842781 497.422211,112.984985 497.678894,113.476456 
	C497.913788,123.966232 497.891937,133.964554 497.657440,144.235992 
	C496.220123,150.067474 492.603912,154.045715 487.273529,154.558395 
	C481.940002,155.071396 476.417908,153.624176 470.978485,153.036209 
	C470.978485,153.036209 470.999908,152.998611 470.974304,152.640747 
	C471.373688,150.879730 471.798645,149.476547 472.223602,148.073395 
M476.715302,124.421722 
	C476.669861,126.209007 476.247589,128.086411 476.649445,129.766724 
	C477.867889,134.861984 482.936523,137.665939 486.212128,134.654739 
	C488.281281,132.752594 489.621979,128.886139 489.407043,126.043060 
	C489.235870,123.778870 486.625580,120.860252 484.362061,119.792747 
	C481.094543,118.251770 478.358551,120.322594 476.715302,124.421722 
z"/>
<path fill="#CFDCE2" opacity="1.000000" stroke="none" 
	d="
M158.046844,264.933197 
	C140.315887,264.465912 133.918045,263.221832 130.507050,259.665985 
	C139.411652,252.371567 204.054703,252.585556 210.897476,260.750732 
	C208.301361,261.538391 206.095840,262.691101 203.833725,262.815674 
	C188.742142,263.646576 173.638504,264.258026 158.046844,264.933197 
z"/>
<path fill="#1F427A" opacity="1.000000" stroke="none" 
	d="
M406.179108,114.987167 
	C406.429077,114.537964 406.679016,114.088753 407.427979,113.343948 
	C410.928101,113.524284 413.929230,114.000221 416.680084,114.664703 
	C416.271973,115.233749 416.114105,115.614250 415.981445,115.996002 
	C416.006683,115.997246 415.978851,115.955063 415.718811,116.141975 
	C415.116364,116.870743 414.773956,117.412598 414.207916,118.175697 
	C412.507416,120.557930 410.856384,122.625954 409.631134,124.921272 
	C409.065216,125.981422 408.823700,127.730812 409.313263,128.742905 
	C410.869843,131.960876 412.839203,134.979172 414.759033,138.357056 
	C415.235931,139.111862 415.602844,139.584229 415.985718,140.031906 
	C416.001709,140.007217 415.946381,140.027161 415.957214,140.331360 
	C416.286469,141.102249 416.604889,141.568954 416.876190,142.389801 
	C410.078766,144.626678 408.219208,143.714600 404.728882,138.157883 
	C403.226837,135.766495 403.373077,131.130478 397.890778,132.220734 
	C397.890778,134.014801 397.890778,135.799469 397.890778,137.584152 
	C397.890778,139.347672 397.890778,141.111206 397.890778,143.317108 
	C394.572479,143.317108 391.817474,143.317108 389.062500,143.317108 
	C389.198120,143.021637 389.213593,142.720001 389.129120,141.750763 
	C389.097961,138.390854 389.046539,135.692368 388.995148,132.993896 
	C389.038757,132.551529 389.082367,132.109177 389.135559,130.873535 
	C389.091553,120.721756 389.037994,111.363266 388.984406,102.004776 
	C388.984406,102.004776 389.096130,101.663162 389.509949,101.400833 
	C391.934418,101.131981 393.945068,101.125450 396.121033,101.367081 
	C396.868622,102.411667 397.450867,103.208099 397.973206,104.469482 
	C397.913330,110.858498 397.913330,116.782562 397.913330,122.706627 
	C398.367157,123.022926 398.820984,123.339226 399.274841,123.655533 
	C400.487000,122.438675 401.699158,121.221825 403.080383,119.711052 
	C404.225983,117.940483 405.202545,116.463821 406.179108,114.987167 
z"/>
<path fill="#1E497E" opacity="1.000000" stroke="none" 
	d="
M348.984741,181.057281 
	C351.868317,185.743439 354.884857,190.384995 354.548492,197.767303 
	C350.920593,191.405411 348.513000,185.956772 345.000854,181.350296 
	C341.048096,176.165894 335.097443,173.251648 328.580505,173.169815 
	C322.546265,173.094070 316.015808,173.084213 310.588593,175.256149 
	C305.197998,177.413452 300.910156,182.326447 295.800629,186.508392 
	C295.323669,187.333603 295.184814,187.681396 295.045929,188.029190 
	C295.045929,188.029190 294.892181,188.218826 294.648499,188.523361 
	C294.247284,189.215775 294.089752,189.603638 293.932220,189.991516 
	C293.932220,189.991516 293.994690,189.984802 293.730225,190.137817 
	C293.284698,190.857285 293.103668,191.423752 292.922668,191.990219 
	C292.922638,191.990219 292.987488,191.987976 292.727112,192.143158 
	C292.303406,192.872620 292.140076,193.446899 291.976746,194.021194 
	C291.976746,194.021194 291.821442,194.218353 291.588654,194.626160 
	C290.901672,196.706512 290.447510,198.379028 289.993317,200.051559 
	C289.993317,200.051559 289.852356,200.281784 289.628571,200.756424 
	C287.369507,211.313644 286.504028,221.336044 290.940369,231.085754 
	C290.940369,231.085754 290.955872,231.013596 290.948547,231.395981 
	C292.249939,234.214691 293.558685,236.651001 294.867432,239.087311 
	C295.107666,239.599319 295.347931,240.111298 295.916077,241.103790 
	C297.457520,242.772003 298.671051,243.959732 299.884613,245.147461 
	C299.884613,245.147461 299.935699,245.084915 299.992615,245.322525 
	C300.360138,245.737793 300.670776,245.915436 300.981415,246.093094 
	C300.981415,246.093094 300.981506,246.020523 301.051605,246.257828 
	C301.418182,246.657043 301.714691,246.818954 302.011169,246.980865 
	C302.011169,246.980865 302.000000,247.000610 302.178223,247.243835 
	C302.878967,247.790527 303.401550,248.093994 303.924103,248.397461 
	C314.069183,255.124405 324.819092,255.250626 335.728485,250.848190 
	C346.383331,246.548477 351.509918,237.419830 354.404877,226.576004 
	C354.624603,249.781158 329.778778,262.798187 305.514954,252.690247 
	C304.310425,252.193130 303.676605,251.994934 303.042786,251.796738 
	C303.042786,251.796738 303.032623,251.922485 302.999146,251.671265 
	C302.643036,251.272797 302.320404,251.125519 301.997772,250.978241 
	C301.997772,250.978241 301.997437,251.008499 301.844604,250.750977 
	C301.152161,250.250092 300.612518,250.006744 300.072906,249.763382 
	C300.072906,249.763382 300.049316,249.899872 300.022583,249.644073 
	C299.673767,249.216660 299.351624,249.045044 299.029510,248.873444 
	C299.029510,248.873428 299.023712,248.966080 298.973877,248.713684 
	C298.619263,248.277939 298.314514,248.094574 298.009766,247.911224 
	C297.538635,247.353333 297.067474,246.795441 296.243011,245.866760 
	C295.598511,245.302597 295.307343,245.109238 295.016174,244.915878 
	C295.016174,244.915878 295.014099,244.986053 294.952148,244.735886 
	C294.600189,244.291794 294.310242,244.097855 294.020264,243.903931 
	C294.020264,243.903931 294.047211,243.968628 293.972412,243.645142 
	C292.982544,242.158997 292.067505,240.996307 291.152435,239.833618 
	C291.152435,239.833618 291.135132,239.934555 291.093994,239.563858 
	C290.094635,237.405807 289.136383,235.618439 288.178131,233.831085 
	C288.178131,233.831085 288.239899,233.877731 288.206604,233.461639 
	C283.972198,221.488571 284.712067,209.775177 287.064117,198.010757 
	C287.064117,198.010757 287.002319,198.015198 287.248718,197.783722 
	C287.965057,196.014374 288.435028,194.476501 288.904968,192.938629 
	C288.904968,192.938629 289.068634,192.635727 289.307129,192.230316 
	C289.732910,191.202972 289.920197,190.581039 290.107483,189.959106 
	C293.311707,185.983124 296.515930,182.007141 300.246216,177.619370 
	C315.471069,167.661453 330.219604,167.167526 345.024811,176.964066 
	C345.024811,176.964066 345.003265,177.003189 345.173218,177.240723 
	C345.853912,177.744522 346.364624,178.010773 346.875366,178.277023 
	C346.875366,178.277023 346.893036,178.138077 346.890991,178.415588 
	C347.205780,178.883270 347.522583,179.073441 347.839386,179.263626 
	C347.839386,179.263626 347.827820,179.125961 347.809814,179.438324 
	C348.189453,180.186218 348.587097,180.621750 348.984741,181.057281 
z"/>
<path fill="#1E4178" opacity="1.000000" stroke="none" 
	d="
M354.043121,122.961823 
	C354.043121,122.961823 354.195160,122.779289 354.404846,122.422966 
	C354.803528,121.382713 354.992493,120.698792 355.181458,120.014862 
	C355.181427,120.014862 355.075165,120.059174 355.350098,119.927223 
	C355.784393,119.199471 355.943787,118.603668 356.103149,118.007858 
	C356.103149,118.007858 356.014832,118.009369 356.278870,117.962143 
	C356.760651,117.634613 356.978394,117.354317 357.196167,117.074028 
	C357.196167,117.074028 357.115051,117.154305 357.460571,117.040817 
	C359.681335,115.652870 361.556610,114.378426 363.431915,113.103989 
	C363.431915,113.103996 363.728516,113.128838 364.250488,113.037407 
	C370.171600,111.233315 375.021271,113.105850 379.828766,115.253609 
	C379.828766,115.253609 379.914246,115.147163 379.954102,115.375717 
	C380.318756,115.784454 380.643616,115.964630 380.968445,116.144806 
	C380.968445,116.144814 380.970947,116.032402 381.010223,116.294975 
	C381.356262,116.750565 381.663055,116.943588 381.969818,117.136612 
	C381.969818,117.136604 381.970428,117.027901 382.005737,117.296379 
	C382.344391,117.765129 382.647705,117.965401 382.951019,118.165665 
	C382.951019,118.165665 382.881012,118.067726 382.935913,118.458847 
	C383.903687,122.898483 384.816559,126.946999 385.729462,130.995514 
	C384.155365,138.561707 378.634644,142.574234 371.992401,144.655624 
	C366.366150,146.418671 362.043732,142.335068 357.351746,138.854401 
	C356.647827,138.238174 356.345551,138.036758 356.043274,137.835342 
	C356.043274,137.835342 356.050629,137.976517 356.060730,137.673279 
	C355.728149,136.886215 355.385468,136.402374 355.042786,135.918549 
	C355.042786,135.918549 355.015778,135.980240 355.031738,135.677261 
	C354.733765,134.869888 354.419861,134.365494 354.105927,133.861099 
	C354.105927,133.861099 354.152527,133.916794 354.135803,133.442322 
	C354.093719,129.632492 354.068420,126.297157 354.043121,122.961823 
M363.123352,122.959526 
	C362.959320,126.146706 361.749176,129.826996 362.948578,132.371490 
	C363.985260,134.570740 367.680115,136.504715 370.343445,136.712036 
	C374.096100,137.004150 376.577545,134.174454 377.268860,130.227066 
	C377.993988,126.086723 377.036591,122.494987 373.307953,120.324310 
	C369.671082,118.207062 366.294250,119.069511 363.123352,122.959526 
z"/>
<path fill="#1E4178" opacity="1.000000" stroke="none" 
	d="
M341.559753,142.871979 
	C340.108521,143.201294 338.672028,143.635666 337.203552,143.842270 
	C329.635559,144.906982 322.774414,141.360153 319.905823,134.964432 
	C316.765106,127.961906 318.974396,120.099831 326.150513,114.354424 
	C327.266876,113.732155 327.844910,113.412880 328.422913,113.093597 
	C328.422913,113.093590 328.719421,113.128128 329.246338,113.050308 
	C332.159851,112.709877 334.546448,112.447258 336.933044,112.184647 
	C337.444855,112.391106 337.956665,112.597565 339.060303,112.915367 
	C340.089539,113.076363 340.526886,113.126022 340.964264,113.175674 
	C340.964264,113.175674 340.957947,113.082336 341.102539,113.328827 
	C341.829132,113.746429 342.411133,113.917542 342.993134,114.088646 
	C342.993134,114.088646 342.980652,114.021187 343.129669,114.277306 
	C343.828461,114.773354 344.378265,115.013283 344.928040,115.253220 
	C344.928040,115.253220 344.944275,115.095398 344.955750,115.364105 
	C345.296844,115.812645 345.626465,115.992485 345.956116,116.172318 
	C345.956116,116.172318 345.961975,116.045258 345.995056,116.309662 
	C346.337341,116.771606 346.646576,116.969147 346.955780,117.166679 
	C346.955780,117.166679 346.951996,117.039246 346.976257,117.317169 
	C347.310211,117.797852 347.619904,118.000618 347.929565,118.203384 
	C347.929565,118.203377 347.919739,118.044006 347.892761,118.354607 
	C348.232605,119.132149 348.599396,119.599083 348.966187,120.066025 
	C348.966187,120.066025 348.997894,120.011757 349.026764,120.402946 
	C349.179535,125.503456 349.303467,130.212769 349.427399,134.922089 
	C349.251862,135.291183 349.076324,135.660278 348.652832,136.421143 
	C348.238190,137.207199 348.071533,137.601486 347.904907,137.995789 
	C347.904907,137.995789 347.966980,137.932693 347.641083,138.057205 
	C345.396729,139.745132 343.478241,141.308548 341.559753,142.871979 
M326.873779,127.604019 
	C327.246490,133.885025 329.890625,137.058350 334.691467,136.986282 
	C338.823212,136.924271 341.795074,133.915695 342.248810,129.335541 
	C342.775513,124.018890 340.113464,120.021729 335.588318,119.334610 
	C331.290436,118.682007 328.274658,121.269608 326.873779,127.604019 
z"/>
<path fill="#219CD5" opacity="1.000000" stroke="none" 
	d="
M576.600586,125.635101 
	C577.113159,139.387268 566.192749,147.402924 554.204285,142.538971 
	C547.313843,139.743393 544.152466,133.845444 545.076538,125.509888 
	C545.807373,118.917374 551.133118,113.943817 558.931763,112.570778 
	C565.017212,111.499359 572.032349,115.004272 574.756531,120.577034 
	C575.482483,122.061874 575.927246,123.684128 576.600586,125.635101 
M567.213684,133.585541 
	C569.855225,129.154312 569.742310,124.588219 565.727661,121.494347 
	C563.691772,119.925339 559.690918,119.355873 557.238831,120.216423 
	C552.837036,121.761230 552.377625,126.196259 553.064758,130.356323 
	C554.159546,136.983490 560.786194,138.792740 567.213684,133.585541 
z"/>
<path fill="#219CD5" opacity="1.000000" stroke="none" 
	d="
M514.817627,133.788544 
	C513.071228,126.980072 513.760132,121.037987 519.097290,116.557793 
	C524.210754,112.265320 530.176941,111.358086 536.395264,113.767632 
	C538.096741,114.426918 539.885620,115.846245 540.738953,117.406525 
	C541.462952,118.730316 540.895935,120.760208 540.900208,122.477646 
	C538.912598,122.173416 536.174744,122.580399 535.082031,121.427788 
	C532.141113,118.325813 529.267883,118.525246 526.122253,120.378075 
	C522.087219,122.754753 521.361450,126.672592 522.189026,130.834641 
	C522.914185,134.481445 525.559509,136.944214 529.195862,136.842514 
	C532.680542,136.745041 536.131470,135.438950 540.152222,134.539948 
	C543.714844,138.087662 543.442383,139.729065 538.038208,142.324326 
	C530.087036,146.142731 518.177795,143.568008 514.817627,133.788544 
z"/>
<path fill="#67BFEC" opacity="1.000000" stroke="none" 
	d="
M389.302002,143.668518 
	C391.817474,143.317108 394.572479,143.317108 397.890778,143.317108 
	C397.890778,141.111206 397.890778,139.347672 397.890778,137.584152 
	C397.890778,135.799469 397.890778,134.014801 397.890778,132.220734 
	C403.373077,131.130478 403.226837,135.766495 404.728882,138.157883 
	C408.219208,143.714600 410.078766,144.626678 417.045685,142.195160 
	C416.823669,141.106613 416.385010,140.566895 415.946381,140.027161 
	C415.946381,140.027161 416.001709,140.007217 415.921448,139.725891 
	C415.443787,138.987915 415.046417,138.531281 414.649048,138.074631 
	C412.839203,134.979172 410.869843,131.960876 409.313263,128.742905 
	C408.823700,127.730812 409.065216,125.981422 409.631134,124.921272 
	C410.856384,122.625954 412.507416,120.557930 414.501770,118.015808 
	C415.339111,117.074791 415.658966,116.514931 415.978851,115.955063 
	C415.978851,115.955063 416.006683,115.997246 416.195465,115.779976 
	C416.566254,115.200523 416.748291,114.838341 416.930328,114.476166 
	C413.929230,114.000221 410.928101,113.524284 407.491821,113.094345 
	C408.870636,111.760559 410.499542,109.732674 412.541138,109.149559 
	C415.779999,108.224480 417.827545,107.159546 418.146698,103.350525 
	C418.521301,98.879662 422.121490,97.986038 425.856506,98.080124 
	C427.807617,98.129265 429.743744,98.774101 432.809875,99.367149 
	C431.585022,103.893929 430.445374,108.105797 428.790314,112.700661 
	C428.034821,113.126953 427.794708,113.170258 427.402893,113.210831 
	C427.251129,113.208107 427.007782,113.026718 427.006287,112.638481 
	C427.004395,111.215424 427.004028,110.180611 427.284668,108.929565 
	C430.347626,106.155617 431.005737,103.063927 427.738068,100.935959 
	C426.288330,99.991852 422.531067,100.421112 421.362732,101.669563 
	C418.978180,104.217552 419.627899,107.271698 423.034454,109.439621 
	C422.724060,110.761681 422.376617,111.821419 421.837189,112.951279 
	C421.645203,113.021393 421.237518,113.051544 420.951843,113.355217 
	C420.443481,122.050751 420.151184,130.441818 420.055573,138.835129 
	C420.036011,140.553497 420.753693,142.280258 421.097839,143.978577 
	C421.064178,143.954010 421.117004,143.889496 421.087738,144.165314 
	C421.040619,144.625183 421.022736,144.809235 421.004883,144.993286 
	C415.057983,144.553787 408.803314,146.462448 403.280090,142.514038 
	C402.728455,142.119690 401.261353,143.204163 400.192169,143.299194 
	C396.648590,143.614166 393.092682,143.790451 389.302002,143.668518 
z"/>
<path fill="#6CB6E4" opacity="1.000000" stroke="none" 
	d="
M469.720062,118.101494 
	C467.534760,124.065193 467.036285,130.123901 470.022583,136.582733 
	C469.252991,136.406769 468.396393,135.850693 467.257080,134.842194 
	C466.720825,133.863037 466.467346,133.336319 466.213867,132.809601 
	C465.924164,133.071518 465.634460,133.333420 465.344757,133.595306 
	C465.894897,134.065094 466.445007,134.534897 466.995117,135.004700 
	C466.714417,136.463776 466.216034,137.919830 466.195679,139.382538 
	C466.143555,143.122528 464.924164,145.021652 460.656036,145.125351 
	C456.175018,145.234222 454.678955,142.987366 454.379272,139.294647 
	C454.072113,135.509445 454.169525,131.693146 453.993683,127.894905 
	C453.884705,125.540825 454.506195,121.783607 450.994995,122.473099 
	C448.845184,122.895256 446.119751,126.160149 445.734833,128.492050 
	C445.099182,132.342987 446.468719,136.484283 446.314362,140.476974 
	C446.259094,141.906128 444.379486,144.249237 443.081665,144.436539 
	C440.546082,144.802490 437.833893,143.944458 435.102600,143.239868 
	C435.010345,142.886566 435.106964,142.930328 435.547546,143.042511 
	C438.246643,143.154678 440.505188,143.154678 443.326721,143.154678 
	C443.326721,138.636185 442.987305,134.637909 443.439911,130.731384 
	C443.769775,127.884026 444.549561,124.687721 446.251556,122.534462 
	C447.487091,120.971390 450.762482,119.961517 452.743164,120.409142 
	C454.124634,120.721336 455.469940,123.835304 455.739960,125.844444 
	C456.223602,129.443390 455.860291,133.153076 455.895020,136.816086 
	C455.954803,143.117355 456.850372,143.820984 463.792908,142.756790 
	C463.792908,135.381180 464.091125,127.919472 463.675903,120.497673 
	C463.443939,116.352303 460.666382,112.995934 456.375427,112.857094 
	C452.140503,112.720062 447.861572,113.942001 443.638611,114.562363 
	C441.003784,114.123978 438.113739,113.643112 435.148254,113.159378 
	C435.072876,113.156494 434.922943,113.139214 434.922943,113.139214 
	C441.217682,112.164520 447.513611,110.411324 453.806885,110.420601 
	C460.984161,110.431198 461.849091,111.901588 465.915771,121.397690 
	C467.122559,120.284027 468.260010,119.234344 469.720062,118.101494 
z"/>
<path fill="#234F83" opacity="1.000000" stroke="none" 
	d="
M451.457092,254.956421 
	C450.824249,254.723984 450.191406,254.491562 449.334045,253.688080 
	C449.050446,226.407410 448.991302,199.697784 448.932159,172.988144 
	C448.932159,172.988144 449.149048,173.032501 449.570160,173.027649 
	C450.622498,173.013260 451.253754,173.003708 451.939697,173.435089 
	C452.005798,178.930115 451.961426,183.985733 452.099579,189.036362 
	C452.116730,189.663940 453.102417,190.265030 453.897247,190.814255 
	C454.634705,190.523834 455.114197,190.297577 455.593689,190.071289 
	C454.629578,193.950592 453.665497,197.829895 452.559326,202.465652 
	C452.286804,214.676987 452.196045,226.132492 452.009308,237.586456 
	C451.914856,243.377914 451.646729,249.166519 451.457092,254.956421 
z"/>
<path fill="#65A8D9" opacity="1.000000" stroke="none" 
	d="
M487.877319,232.693253 
	C486.659058,227.324219 485.336456,221.541550 484.512634,215.688690 
	C484.424561,215.062943 487.237274,213.312424 488.719788,213.293488 
	C502.706696,213.114944 516.697021,213.200821 530.686340,213.207169 
	C538.295166,213.210617 545.903992,213.207794 554.860168,213.207794 
	C553.679626,206.205475 552.647339,200.082626 551.532715,193.548035 
	C555.086731,198.749023 556.540833,204.906052 555.745178,211.519592 
	C555.297485,215.240662 552.319824,214.953125 549.614746,214.951965 
	C531.470825,214.944183 513.326904,214.946106 495.183014,214.947815 
	C485.558838,214.948730 485.566528,214.950348 486.897186,224.369308 
	C487.268097,226.994934 487.578888,229.629074 487.877319,232.693253 
z"/>
<path fill="#1E497E" opacity="1.000000" stroke="none" 
	d="
M455.782074,189.759308 
	C455.114197,190.297577 454.634705,190.523834 453.952271,190.439178 
	C454.962036,187.203705 456.174744,184.279175 457.387482,181.354630 
	C457.387482,181.354630 457.350891,181.227005 457.566589,181.179565 
	C457.938354,180.795303 458.094391,180.458481 458.250427,180.121643 
	C458.250427,180.121643 458.132751,180.092606 458.394897,180.067276 
	C458.826782,179.711197 458.996552,179.380432 459.166321,179.049667 
	C459.166321,179.049667 459.086334,179.101135 459.426636,179.004761 
	C465.994965,173.188828 473.413544,170.415619 481.789246,170.024826 
	C483.745270,169.933563 485.683197,169.903198 484.675598,172.854523 
	C471.460938,172.077484 461.964355,177.732574 455.782074,189.759308 
z"/>
<path fill="#71B9E8" opacity="1.000000" stroke="none" 
	d="
M344.995422,176.606659 
	C330.219604,167.167526 315.471069,167.661453 300.441528,177.370667 
	C301.406189,175.759552 302.340271,172.995346 304.054901,172.369446 
	C316.591705,167.792969 329.253571,166.679459 341.664734,172.924347 
	C342.987854,173.590088 343.876099,175.120163 344.995422,176.606659 
z"/>
<path fill="#74C5F3" opacity="1.000000" stroke="none" 
	d="
M448.709564,173.336578 
	C448.991302,199.697784 449.050446,226.407410 449.099365,253.593582 
	C448.726593,252.661987 448.051575,251.254654 448.047943,249.845581 
	C447.985107,225.432831 447.999146,201.019882 448.026581,176.606979 
	C448.027679,175.632828 448.326752,174.658981 448.709564,173.336578 
z"/>
<path fill="#219CD5" opacity="1.000000" stroke="none" 
	d="
M508.347839,143.477875 
	C504.590515,144.006943 502.136261,142.448624 502.411743,139.107147 
	C502.553101,137.392349 504.836639,134.711746 506.350983,134.568420 
	C507.918976,134.419983 510.543365,136.514008 511.161285,138.194916 
	C511.618683,139.439163 509.602203,141.592819 508.347839,143.477875 
z"/>
<path fill="#6CB6E4" opacity="1.000000" stroke="none" 
	d="
M470.996857,153.375702 
	C476.417908,153.624176 481.940002,155.071396 487.273529,154.558395 
	C492.603912,154.045715 496.220123,150.067474 497.939880,144.249603 
	C498.623138,144.000793 498.811310,144.011505 498.999512,144.022232 
	C498.288116,154.546707 486.597839,159.426697 476.795105,156.633987 
	C474.843170,156.077896 471.250946,157.902512 470.996857,153.375702 
z"/>
<path fill="#6CB6E4" opacity="1.000000" stroke="none" 
	d="
M470.068726,137.279083 
	C475.311249,142.947800 481.645660,144.428543 489.426056,140.660782 
	C489.157440,146.198654 486.433441,148.144791 482.100006,148.060547 
	C479.669312,148.013290 477.249695,147.393326 474.420135,146.941162 
	C477.657318,146.395645 481.299469,145.940384 484.941620,145.485107 
	C484.967072,145.199966 484.992554,144.914810 485.018005,144.629669 
	C481.936584,144.071564 478.635071,144.016907 475.843109,142.796494 
	C473.597778,141.815033 471.969177,139.422699 470.068726,137.279083 
z"/>
<path fill="#71B9E8" opacity="1.000000" stroke="none" 
	d="
M485.029297,172.833420 
	C485.683197,169.903198 483.745270,169.933563 481.789246,170.024826 
	C473.413544,170.415619 465.994965,173.188828 459.454956,179.042969 
	C460.022400,177.357956 460.439575,174.549454 461.859406,173.885696 
	C468.936340,170.577255 476.314819,167.951889 484.377075,169.085663 
	C485.406677,169.230484 486.345673,170.019821 487.326630,170.510574 
	C486.678741,171.277817 486.030853,172.045059 485.029297,172.833420 
z"/>
<path fill="#72BEEA" opacity="1.000000" stroke="none" 
	d="
M421.453339,144.995422 
	C421.022736,144.809235 421.040619,144.625183 421.519165,144.211029 
	C424.761383,143.582123 429.080719,145.743988 429.151550,140.491806 
	C429.269867,131.717148 428.952789,122.936623 428.873657,114.109863 
	C428.928284,114.061157 429.036224,113.962296 429.036255,113.962296 
	C429.690674,115.503479 430.848511,117.025009 430.909668,118.589386 
	C431.137054,124.408234 431.009552,130.241150 431.004883,136.068787 
	C430.997742,144.993088 430.994080,144.993088 421.453339,144.995422 
z"/>
<path fill="#71B9E8" opacity="1.000000" stroke="none" 
	d="
M457.020630,181.360443 
	C456.174744,184.279175 454.962036,187.203705 453.694305,190.503326 
	C453.102417,190.265030 452.116730,189.663940 452.099579,189.036362 
	C451.961426,183.985733 452.005798,178.930115 451.980225,173.205170 
	C451.966034,172.534332 451.930450,172.068878 451.968872,172.029434 
	C452.007324,171.989990 452.082733,171.909729 452.082733,171.909729 
	C452.718994,173.927032 453.186829,176.020309 454.050659,177.934937 
	C454.626129,179.210541 455.766327,180.231384 457.020630,181.360443 
z"/>
<path fill="#6CB6E4" opacity="1.000000" stroke="none" 
	d="
M496.869232,112.528275 
	C492.265472,113.688286 487.710236,114.255089 482.844910,112.460884 
	C480.628723,111.643585 477.486023,113.338638 474.386719,113.960144 
	C477.129578,108.377563 479.089935,107.922485 484.633545,110.292122 
	C487.208008,111.392578 490.295837,111.296555 493.153015,111.728951 
	C494.344788,111.909309 495.542084,112.053261 496.869232,112.528275 
z"/>
<path fill="#71B9E8" opacity="1.000000" stroke="none" 
	d="
M286.753052,198.213943 
	C284.712067,209.775177 283.972198,221.488571 288.227936,233.429337 
	C287.275421,232.882324 285.411407,231.968445 285.392639,231.018112 
	C285.188263,220.679016 285.255920,210.334091 285.328369,199.991318 
	C285.332062,199.464005 286.054321,198.941742 286.753052,198.213943 
z"/>
<path fill="#72BEEA" opacity="1.000000" stroke="none" 
	d="
M386.138550,130.997803 
	C384.816559,126.946999 383.903687,122.898483 382.888428,118.495895 
	C384.428436,119.710876 386.070770,121.279930 388.515656,123.615715 
	C388.515656,116.505905 388.515656,109.595711 388.750031,102.345146 
	C389.037994,111.363266 389.091553,120.721756 389.069885,130.545013 
	C388.178986,131.006546 387.363281,131.003326 386.138550,130.997803 
z"/>
<path fill="#71B9E8" opacity="1.000000" stroke="none" 
	d="
M451.798828,254.687469 
	C451.646729,249.166519 451.914856,243.377914 452.009308,237.586456 
	C452.196045,226.132492 452.286804,214.676987 452.672943,202.837219 
	C452.958832,218.351700 453.011536,234.251114 452.980621,250.150345 
	C452.977844,251.573608 452.433411,252.995819 451.798828,254.687469 
z"/>
<path fill="#72BEEA" opacity="1.000000" stroke="none" 
	d="
M349.823730,134.821045 
	C349.303467,130.212769 349.179535,125.503456 348.996185,120.410217 
	C350.404266,120.993797 351.871826,121.961304 353.691223,122.945312 
	C354.068420,126.297157 354.093719,129.632492 354.159180,133.414536 
	C352.872894,134.147491 351.546509,134.433746 349.823730,134.821045 
z"/>
<path fill="#71B9E8" opacity="1.000000" stroke="none" 
	d="
M528.842773,170.799561 
	C521.256836,169.624390 513.498657,169.466675 505.450623,172.125229 
	C507.644928,170.963242 510.234772,168.786331 512.844910,168.761826 
	C518.095764,168.712509 523.357666,169.836227 528.842773,170.799561 
z"/>
<path fill="#71B9E8" opacity="1.000000" stroke="none" 
	d="
M290.958038,230.651337 
	C286.504028,221.336044 287.369507,211.313644 289.652252,200.889297 
	C290.258392,210.437332 290.617065,220.327133 290.958038,230.651337 
z"/>
<path fill="#74C5F3" opacity="1.000000" stroke="none" 
	d="
M139.747162,91.766739 
	C130.577835,90.265335 121.193672,90.917625 111.441490,93.005722 
	C113.790184,92.064407 116.554588,90.351799 119.326096,90.340248 
	C126.031464,90.312294 132.740143,91.077644 139.747162,91.766739 
z"/>
<path fill="#72BEEA" opacity="1.000000" stroke="none" 
	d="
M379.803040,114.875595 
	C375.021271,113.105850 370.171600,111.233315 364.373291,112.953354 
	C365.916779,111.749245 368.187653,109.211380 369.735718,109.594460 
	C373.270905,110.469208 376.452209,112.773811 379.803040,114.875595 
z"/>
<path fill="#74C5F3" opacity="1.000000" stroke="none" 
	d="
M499.003906,143.551300 
	C498.811310,144.011505 498.623138,144.000793 498.152527,143.976471 
	C497.891937,133.964554 497.913788,123.966232 497.899200,113.503899 
	C498.246185,114.929001 498.932220,116.813591 498.960541,118.708015 
	C499.082001,126.830559 499.009857,134.955994 499.003906,143.551300 
z"/>
<path fill="#74C5F3" opacity="1.000000" stroke="none" 
	d="
M434.958466,142.875641 
	C434.600800,137.958664 434.117706,133.055435 434.039764,128.145782 
	C433.963837,123.361061 434.302277,118.569740 434.690887,113.460266 
	C434.922943,113.139214 435.072876,113.156494 435.120697,113.616241 
	C435.148010,123.694099 435.127472,133.312210 435.106964,142.930328 
	C435.106964,142.930328 435.010345,142.886566 434.958466,142.875641 
z"/>
<path fill="#72BEEA" opacity="1.000000" stroke="none" 
	d="
M307.811401,101.920609 
	C302.164642,101.892174 296.417542,101.345573 290.658447,101.145248 
	C289.381348,101.100838 288.061798,102.278687 286.442383,103.125191 
	C286.872589,102.272308 287.598846,100.269073 288.375549,100.249313 
	C294.493683,100.093666 300.621887,100.300133 306.744934,100.469933 
	C307.075073,100.479088 307.386597,101.159370 307.811401,101.920609 
z"/>
<path fill="#72BEEA" opacity="1.000000" stroke="none" 
	d="
M402.911316,120.004967 
	C401.699158,121.221825 400.487000,122.438675 399.274841,123.655533 
	C398.820984,123.339226 398.367157,123.022926 397.913330,122.706627 
	C397.913330,116.782562 397.913330,110.858498 398.218018,104.466988 
	C398.522736,103.999542 399.012360,104.002655 399.012360,104.002655 
	C399.016693,108.023499 399.021027,112.044334 399.023743,116.876259 
	C398.999359,120.673576 399.710693,122.427887 402.911316,120.004967 
z"/>
<path fill="#67BFEC" opacity="1.000000" stroke="none" 
	d="
M403.080383,119.711052 
	C399.710693,122.427887 398.999359,120.673576 399.028381,117.338776 
	C401.167633,116.363518 403.300690,115.736832 405.806396,115.048653 
	C405.202545,116.463821 404.225983,117.940483 403.080383,119.711052 
z"/>
<path fill="#72BEEA" opacity="1.000000" stroke="none" 
	d="
M336.829010,111.823929 
	C334.546448,112.447258 332.159851,112.709877 329.372070,112.969887 
	C330.847260,108.814407 333.589020,109.122581 336.829010,111.823929 
z"/>
<path fill="#71B9E8" opacity="1.000000" stroke="none" 
	d="
M295.070282,238.846619 
	C293.558685,236.651001 292.249939,234.214691 290.916321,231.414001 
	C292.352020,233.568405 293.812592,236.087158 295.070282,238.846619 
z"/>
<path fill="#67BFEC" opacity="1.000000" stroke="none" 
	d="
M399.316711,103.904198 
	C399.012360,104.002655 398.522736,103.999542 398.277924,104.002045 
	C397.450867,103.208099 396.868622,102.411667 396.134399,101.087303 
	C395.990356,100.372810 395.998230,100.186249 396.006104,99.999695 
	C397.813110,100.696594 401.613800,99.499863 399.316711,103.904198 
z"/>
<path fill="#65A8D9" opacity="1.000000" stroke="none" 
	d="
M550.868347,190.900909 
	C549.581238,189.126083 548.325134,186.932846 546.981140,184.407455 
	C550.663330,184.688782 551.102844,187.384598 550.868347,190.900909 
z"/>
<path fill="#72BEEA" opacity="1.000000" stroke="none" 
	d="
M341.978088,142.896698 
	C343.478241,141.308548 345.396729,139.745132 347.608887,138.026855 
	C348.010193,141.673904 345.913452,143.072037 341.978088,142.896698 
z"/>
<path fill="#6CB6E4" opacity="1.000000" stroke="none" 
	d="
M471.867523,148.124649 
	C471.798645,149.476547 471.373688,150.879730 470.955383,152.651367 
	C467.863831,151.033020 468.828766,149.507050 471.867523,148.124649 
z"/>
<path fill="#72BEEA" opacity="1.000000" stroke="none" 
	d="
M362.993835,113.079659 
	C361.556610,114.378426 359.681335,115.652870 357.503021,117.078926 
	C356.771301,112.998825 359.594086,112.937996 362.993835,113.079659 
z"/>
<path fill="#71B9E8" opacity="1.000000" stroke="none" 
	d="
M288.133972,234.227783 
	C289.136383,235.618439 290.094635,237.405807 291.130859,239.528320 
	C290.169189,238.117157 289.129517,236.370819 288.133972,234.227783 
z"/>
<path fill="#71B9E8" opacity="1.000000" stroke="none" 
	d="
M535.880127,173.685654 
	C533.982239,173.236725 531.978577,172.432510 529.701050,171.371094 
	C531.542908,171.852722 533.658630,172.591537 535.880127,173.685654 
z"/>
<path fill="#72BEEA" opacity="1.000000" stroke="none" 
	d="
M388.768585,133.312317 
	C389.046539,135.692368 389.097961,138.390854 389.062744,141.529633 
	C388.831421,139.190201 388.686707,136.410477 388.768585,133.312317 
z"/>
<path fill="#71B9E8" opacity="1.000000" stroke="none" 
	d="
M299.897583,244.770905 
	C298.671051,243.959732 297.457520,242.772003 296.143280,241.278412 
	C297.331940,242.113144 298.621246,243.253738 299.897583,244.770905 
z"/>
<path fill="#71B9E8" opacity="1.000000" stroke="none" 
	d="
M291.117950,240.225006 
	C292.067505,240.996307 292.982544,242.158997 294.001953,243.626312 
	C293.098694,242.826096 292.091095,241.721252 291.117950,240.225006 
z"/>
<path fill="#71B9E8" opacity="1.000000" stroke="none" 
	d="
M288.574463,193.088043 
	C288.435028,194.476501 287.965057,196.014374 287.266785,197.808884 
	C287.440277,196.456161 287.842133,194.846802 288.574463,193.088043 
z"/>
<path fill="#71B9E8" opacity="1.000000" stroke="none" 
	d="
M290.300232,199.825394 
	C290.447510,198.379028 290.901672,196.706512 291.611633,194.749542 
	C291.447327,196.176468 291.027252,197.887848 290.300232,199.825394 
z"/>
<path fill="#72BEEA" opacity="1.000000" stroke="none" 
	d="
M395.585388,99.996552 
	C395.998230,100.186249 395.990356,100.372810 395.969055,100.839157 
	C393.945068,101.125450 391.934418,101.131981 389.500488,101.221375 
	C391.106323,100.867294 393.135529,100.430351 395.585388,99.996552 
z"/>
<path fill="#71B9E8" opacity="1.000000" stroke="none" 
	d="
M449.108063,172.220398 
	C450.020813,171.925461 450.933594,171.630524 451.964539,171.622650 
	C452.082733,171.909729 452.007324,171.989990 451.615448,171.983688 
	C450.518402,172.058395 449.813232,172.139404 449.108063,172.220398 
z"/>
<path fill="#74C5F3" opacity="1.000000" stroke="none" 
	d="
M152.808136,96.774216 
	C151.775803,96.574883 150.571884,96.079559 149.185898,95.302750 
	C150.214737,95.506912 151.425644,95.992561 152.808136,96.774216 
z"/>
<path fill="#65A8D9" opacity="1.000000" stroke="none" 
	d="
M541.709778,177.912659 
	C540.923279,177.683609 540.099365,177.115158 539.115112,176.288651 
	C539.860657,176.544830 540.766541,177.059036 541.709778,177.912659 
z"/>
<path fill="#65A8D9" opacity="1.000000" stroke="none" 
	d="
M545.606140,181.993439 
	C545.054016,181.798264 544.514160,181.274490 543.874329,180.482483 
	C544.389038,180.697784 545.003723,181.181320 545.606140,181.993439 
z"/>
<path fill="#65A8D9" opacity="1.000000" stroke="none" 
	d="
M491.004272,239.659546 
	C490.575623,239.294189 490.134918,238.596695 489.643555,237.587311 
	C490.059296,237.959442 490.525757,238.643433 491.004272,239.659546 
z"/>
<path fill="#74C5F3" opacity="1.000000" stroke="none" 
	d="
M143.735672,92.786308 
	C143.133163,92.818909 142.283829,92.631683 141.178345,92.233139 
	C141.777756,92.203377 142.633301,92.384926 143.735672,92.786308 
z"/>
<path fill="#74C5F3" opacity="1.000000" stroke="none" 
	d="
M148.739197,94.787415 
	C148.147690,94.814621 147.315536,94.624176 146.238785,94.220413 
	C146.828979,94.194656 147.663757,94.382210 148.739197,94.787415 
z"/>
<path fill="#1E497E" opacity="1.000000" stroke="none" 
	d="
M449.146729,172.442261 
	C449.813232,172.139404 450.518402,172.058395 451.577026,172.023132 
	C451.930450,172.068878 451.966034,172.534332 451.925507,172.764252 
	C451.253754,173.003708 450.622498,173.013260 449.678589,173.049774 
	C449.365906,173.076736 449.185364,172.664124 449.146729,172.442261 
z"/>
<path fill="#71B9E8" opacity="1.000000" stroke="none" 
	d="
M300.245514,250.011566 
	C300.612518,250.006744 301.152161,250.250092 301.858093,250.744110 
	C301.489014,250.749756 300.953552,250.504745 300.245514,250.011566 
z"/>
<path fill="#72BEEA" opacity="1.000000" stroke="none" 
	d="
M354.127747,134.166229 
	C354.419861,134.365494 354.733765,134.869888 355.064880,135.683121 
	C354.771271,135.485092 354.460449,134.978226 354.127747,134.166229 
z"/>
<path fill="#72BEEA" opacity="1.000000" stroke="none" 
	d="
M342.785095,113.865105 
	C342.411133,113.917542 341.829132,113.746429 341.056152,113.334717 
	C341.435791,113.276588 342.006439,113.459076 342.785095,113.865105 
z"/>
<path fill="#74C5F3" opacity="1.000000" stroke="none" 
	d="
M145.795975,93.803551 
	C145.465118,93.815018 144.933777,93.621483 144.203156,93.222763 
	C144.534424,93.211235 145.064957,93.404892 145.795975,93.803551 
z"/>
<path fill="#71B9E8" opacity="1.000000" stroke="none" 
	d="
M303.770447,248.125397 
	C303.401550,248.093994 302.878967,247.790527 302.186707,247.235641 
	C302.550293,247.273941 303.083557,247.563644 303.770447,248.125397 
z"/>
<path fill="#71B9E8" opacity="1.000000" stroke="none" 
	d="
M289.876892,190.194458 
	C289.920197,190.581039 289.732910,191.202972 289.312592,192.058258 
	C289.268433,191.671021 289.457367,191.050415 289.876892,190.194458 
z"/>
<path fill="#71B9E8" opacity="1.000000" stroke="none" 
	d="
M293.144531,191.790253 
	C293.103668,191.423752 293.284698,190.857285 293.710449,190.113403 
	C293.758881,190.487411 293.562622,191.038834 293.144531,191.790253 
z"/>
<path fill="#72BEEA" opacity="1.000000" stroke="none" 
	d="
M354.929810,120.269730 
	C354.992493,120.698792 354.803528,121.382713 354.353333,122.315948 
	C354.287445,121.885040 354.482819,121.204819 354.929810,120.269730 
z"/>
<path fill="#71B9E8" opacity="1.000000" stroke="none" 
	d="
M292.186035,193.809204 
	C292.140076,193.446899 292.303406,192.872620 292.709961,192.115616 
	C292.767212,192.487686 292.581268,193.042450 292.186035,193.809204 
z"/>
<path fill="#65A8D9" opacity="1.000000" stroke="none" 
	d="
M546.877075,183.798965 
	C546.544006,183.673935 546.169739,183.251877 545.713135,182.553009 
	C546.032532,182.684799 546.434265,183.093369 546.877075,183.798965 
z"/>
<path fill="#72BEEA" opacity="1.000000" stroke="none" 
	d="
M355.878845,118.219276 
	C355.943787,118.603668 355.784393,119.199471 355.374756,119.979240 
	C355.301178,119.585709 355.477875,119.008202 355.878845,118.219276 
z"/>
<path fill="#72BEEA" opacity="1.000000" stroke="none" 
	d="
M348.916809,119.763840 
	C348.599396,119.599083 348.232605,119.132149 347.813293,118.362091 
	C348.129669,118.526543 348.498566,118.994102 348.916809,119.763840 
z"/>
<path fill="#71B9E8" opacity="1.000000" stroke="none" 
	d="
M303.268311,252.049255 
	C303.676605,251.994934 304.310425,252.193130 305.171082,252.641479 
	C304.763245,252.695007 304.128540,252.498398 303.268311,252.049255 
z"/>
<path fill="#74C5F3" opacity="1.000000" stroke="none" 
	d="
M110.706093,93.067551 
	C110.520439,93.325813 110.049667,93.631294 109.300056,94.002991 
	C109.487808,93.751068 109.954391,93.432922 110.706093,93.067551 
z"/>
<path fill="#72BEEA" opacity="1.000000" stroke="none" 
	d="
M344.750305,115.001068 
	C344.378265,115.013283 343.828461,114.773354 343.097595,114.289398 
	C343.468506,114.279892 344.020569,114.514404 344.750305,115.001068 
z"/>
<path fill="#65A8D9" opacity="1.000000" stroke="none" 
	d="
M488.768555,235.143372 
	C488.457672,234.905487 488.145386,234.325165 487.819214,233.407272 
	C488.125916,233.646774 488.446564,234.223831 488.768555,235.143372 
z"/>
<path fill="#72BEEA" opacity="1.000000" stroke="none" 
	d="
M328.080750,113.118408 
	C327.844910,113.412880 327.266876,113.732155 326.357880,114.097641 
	C326.597473,113.810310 327.168030,113.476768 328.080750,113.118408 
z"/>
<path fill="#71B9E8" opacity="1.000000" stroke="none" 
	d="
M348.925964,180.759430 
	C348.587097,180.621750 348.189453,180.186218 347.741821,179.450256 
	C348.083588,179.587067 348.475403,180.024307 348.925964,180.759430 
z"/>
<path fill="#71B9E8" opacity="1.000000" stroke="none" 
	d="
M502.974670,173.119171 
	C502.768005,173.429245 502.228333,173.773254 501.370850,174.188873 
	C501.582550,173.891357 502.112091,173.522232 502.974670,173.119171 
z"/>
<path fill="#6CB6E4" opacity="1.000000" stroke="none" 
	d="
M471.062378,116.309891 
	C471.054199,116.676178 470.777679,117.187790 470.262756,117.872772 
	C470.280884,117.515831 470.537445,116.985527 471.062378,116.309891 
z"/>
<path fill="#71B9E8" opacity="1.000000" stroke="none" 
	d="
M346.725647,178.020782 
	C346.364624,178.010773 345.853912,177.744522 345.190826,177.226379 
	C345.550964,177.237839 346.063477,177.501205 346.725647,178.020782 
z"/>
<path fill="#6CB6E4" opacity="1.000000" stroke="none" 
	d="
M473.731689,114.066788 
	C473.587524,114.390709 473.145874,114.767189 472.418182,115.220642 
	C472.566162,114.904861 473.000183,114.512100 473.731689,114.066788 
z"/>
<path fill="#72BEEA" opacity="1.000000" stroke="none" 
	d="
M355.088806,136.221069 
	C355.385468,136.402374 355.728149,136.886215 356.131226,137.667999 
	C355.839355,137.485184 355.487091,137.004379 355.088806,136.221069 
z"/>
<path fill="#72BEEA" opacity="1.000000" stroke="none" 
	d="
M340.831482,112.976364 
	C340.526886,113.126022 340.089539,113.076363 339.342773,112.909035 
	C339.588470,112.786598 340.143555,112.781830 340.831482,112.976364 
z"/>
<path fill="#71B9E8" opacity="1.000000" stroke="none" 
	d="
M537.779663,174.930634 
	C537.421570,174.940018 536.874207,174.714264 536.140381,174.254593 
	C536.499390,174.245605 537.044800,174.470551 537.779663,174.930634 
z"/>
<path fill="#71B9E8" opacity="1.000000" stroke="none" 
	d="
M298.154907,248.125641 
	C298.314514,248.094574 298.619263,248.277939 299.020264,248.715393 
	C298.844360,248.759674 298.572235,248.549866 298.154907,248.125641 
z"/>
<path fill="#71B9E8" opacity="1.000000" stroke="none" 
	d="
M347.719360,179.022003 
	C347.522583,179.073441 347.205780,178.883270 346.821045,178.411896 
	C347.035217,178.347260 347.317261,178.563812 347.719360,179.022003 
z"/>
<path fill="#71B9E8" opacity="1.000000" stroke="none" 
	d="
M302.155945,251.176376 
	C302.320404,251.125519 302.643036,251.272797 303.062164,251.674042 
	C302.877136,251.743515 302.595642,251.559021 302.155945,251.176376 
z"/>
<path fill="#71B9E8" opacity="1.000000" stroke="none" 
	d="
M299.180542,249.090210 
	C299.351624,249.045044 299.673767,249.216660 300.091309,249.652908 
	C299.901672,249.714020 299.616608,249.510498 299.180542,249.090210 
z"/>
<path fill="#71B9E8" opacity="1.000000" stroke="none" 
	d="
M294.158936,244.119492 
	C294.310242,244.097855 294.600189,244.291794 294.987213,244.734772 
	C294.822052,244.767578 294.559845,244.551315 294.158936,244.119492 
z"/>
<path fill="#65A8D9" opacity="1.000000" stroke="none" 
	d="
M489.625916,237.008255 
	C489.461884,236.998749 489.243927,236.742767 488.997437,236.226196 
	C489.169891,236.231003 489.370941,236.496399 489.625916,237.008255 
z"/>
<path fill="#71B9E8" opacity="1.000000" stroke="none" 
	d="
M301.860901,246.785370 
	C301.714691,246.818954 301.418182,246.657043 301.015320,246.258636 
	C301.212952,246.159454 301.480194,246.348694 301.860901,246.785370 
z"/>
<path fill="#71B9E8" opacity="1.000000" stroke="none" 
	d="
M295.157898,245.131958 
	C295.307343,245.109238 295.598511,245.302597 295.996490,245.741577 
	C295.835388,245.774139 295.567505,245.561081 295.157898,245.131958 
z"/>
<path fill="#71B9E8" opacity="1.000000" stroke="none" 
	d="
M300.834900,245.879364 
	C300.670776,245.915436 300.360138,245.737793 299.959961,245.298767 
	C300.143036,245.246811 300.415680,245.456207 300.834900,245.879364 
z"/>
<path fill="#72BEEA" opacity="1.000000" stroke="none" 
	d="
M348.130371,137.775681 
	C348.071533,137.601486 348.238190,137.207199 348.676270,136.628387 
	C348.750366,136.814423 348.553101,137.184998 348.130371,137.775681 
z"/>
<path fill="#72BEEA" opacity="1.000000" stroke="none" 
	d="
M347.792267,117.969208 
	C347.619904,118.000618 347.310211,117.797852 346.912659,117.320900 
	C347.101471,117.276146 347.378235,117.505585 347.792267,117.969208 
z"/>
<path fill="#72BEEA" opacity="1.000000" stroke="none" 
	d="
M356.964233,117.201050 
	C356.978394,117.354317 356.760651,117.634613 356.280151,118.006287 
	C356.255676,117.841141 356.493988,117.584602 356.964233,117.201050 
z"/>
<path fill="#72BEEA" opacity="1.000000" stroke="none" 
	d="
M382.811859,117.938484 
	C382.647705,117.965401 382.344391,117.765129 381.951416,117.297287 
	C382.132080,117.256912 382.402374,117.484108 382.811859,117.938484 
z"/>
<path fill="#72BEEA" opacity="1.000000" stroke="none" 
	d="
M381.824921,116.914825 
	C381.663055,116.943588 381.356262,116.750565 380.954010,116.295044 
	C381.132355,116.252708 381.406189,116.472870 381.824921,116.914825 
z"/>
<path fill="#72BEEA" opacity="1.000000" stroke="none" 
	d="
M346.811401,116.940079 
	C346.646576,116.969147 346.337341,116.771606 345.931458,116.308533 
	C346.112213,116.266479 346.389587,116.489975 346.811401,116.940079 
z"/>
<path fill="#6CB6E4" opacity="1.000000" stroke="none" 
	d="
M472.031799,115.273941 
	C472.087341,115.464111 471.900604,115.780891 471.448059,116.195236 
	C471.384674,115.995392 471.587097,115.697975 472.031799,115.273941 
z"/>
<path fill="#72BEEA" opacity="1.000000" stroke="none" 
	d="
M380.816803,115.922806 
	C380.643616,115.964630 380.318756,115.784454 379.898926,115.335495 
	C380.091034,115.278076 380.378082,115.489441 380.816803,115.922806 
z"/>
<path fill="#72BEEA" opacity="1.000000" stroke="none" 
	d="
M345.805847,115.946701 
	C345.626465,115.992485 345.296844,115.812645 344.876556,115.359138 
	C345.075806,115.297333 345.365692,115.509201 345.805847,115.946701 
z"/>
<path fill="#71B9E8" opacity="1.000000" stroke="none" 
	d="
M294.153931,189.776398 
	C294.089752,189.603638 294.247284,189.215775 294.668945,188.643707 
	C294.747223,188.826752 294.561432,189.194016 294.153931,189.776398 
z"/>
<path fill="#72BEEA" opacity="1.000000" stroke="none" 
	d="
M356.188873,138.061554 
	C356.345551,138.036758 356.647827,138.238174 357.057922,138.698486 
	C356.888672,138.734192 356.611572,138.510971 356.188873,138.061554 
z"/>
<path fill="#72BEEA" opacity="1.000000" stroke="none" 
	d="
M427.554626,113.213562 
	C427.794708,113.170258 428.034821,113.126953 428.637817,113.036163 
	C429.000763,112.988670 429.013489,113.476540 429.024841,113.719421 
	C429.036224,113.962296 428.928284,114.061157 428.619507,114.015648 
	C428.058716,113.717941 427.806671,113.465752 427.554626,113.213562 
z"/>
<path fill="#71B9E8" opacity="1.000000" stroke="none" 
	d="
M504.911438,172.146820 
	C504.914276,172.298187 504.701752,172.548965 504.235474,172.832489 
	C504.182007,172.615189 504.420105,172.408859 504.911438,172.146820 
z"/>
<path fill="#65A8D9" opacity="1.000000" stroke="none" 
	d="
M538.830811,175.846542 
	C538.676819,175.895996 538.369263,175.744415 537.938599,175.360626 
	C538.102783,175.300781 538.390015,175.473145 538.830811,175.846542 
z"/>
<path fill="#65A8D9" opacity="1.000000" stroke="none" 
	d="
M542.746399,178.973068 
	C542.573914,179.022552 542.273254,178.848328 541.872314,178.427338 
	C542.054077,178.370163 542.336182,178.559753 542.746399,178.973068 
z"/>
<path fill="#71B9E8" opacity="1.000000" stroke="none" 
	d="
M458.944214,179.197571 
	C458.996552,179.380432 458.826782,179.711197 458.384827,180.127045 
	C458.315796,179.923248 458.518951,179.634354 458.944214,179.197571 
z"/>
<path fill="#65A8D9" opacity="1.000000" stroke="none" 
	d="
M543.733887,179.979553 
	C543.564758,180.015167 543.278870,179.820129 542.899780,179.375610 
	C543.076721,179.333710 543.346924,179.541306 543.733887,179.979553 
z"/>
<path fill="#71B9E8" opacity="1.000000" stroke="none" 
	d="
M458.019379,180.252686 
	C458.094391,180.458481 457.938354,180.795303 457.503052,181.198776 
	C457.411957,180.971527 457.600128,180.677628 458.019379,180.252686 
z"/>
<path fill="#71B9E8" opacity="1.000000" stroke="none" 
	d="
M295.239288,187.830780 
	C295.184814,187.681396 295.323669,187.333603 295.694672,186.815338 
	C295.762115,186.974060 295.597382,187.303207 295.239288,187.830780 
z"/>
<path fill="#63C3F0" opacity="1.000000" stroke="none" 
	d="
M382.999664,213.960510 
	C383.497375,213.729767 383.995056,213.499054 385.119141,213.445816 
	C396.369019,213.052582 406.995361,212.525558 417.609955,211.820984 
	C418.385834,211.769485 419.076385,210.432770 419.806580,209.693573 
	C419.806580,209.693573 419.878326,209.751648 420.156677,209.785034 
	C420.954651,209.523697 421.474274,209.228989 421.993866,208.934265 
	C421.993866,208.934250 421.987213,208.995850 422.362427,209.036285 
	C423.489746,210.506607 424.811127,211.905228 424.891632,213.371964 
	C425.180939,218.642776 425.051056,223.936615 425.079590,229.221741 
	C419.585144,250.573059 399.939728,256.027466 384.107941,252.976974 
	C375.697388,251.356415 369.464752,245.674164 368.131622,238.463867 
	C366.307251,228.596634 369.398834,220.848572 377.734222,215.952728 
	C378.922485,215.554977 379.458008,215.238586 379.993530,214.922211 
	C379.993530,214.922211 379.984772,214.986816 380.295319,214.974411 
	C381.403809,214.628174 382.201752,214.294342 382.999664,213.960510 
z"/>
<path fill="#71B9E8" opacity="1.000000" stroke="none" 
	d="
M419.396057,209.738281 
	C419.076385,210.432770 418.385834,211.769485 417.609955,211.820984 
	C406.995361,212.525558 396.369019,213.052582 385.398224,213.443542 
	C396.362457,212.103516 407.673981,210.943253 419.396057,209.738281 
z"/>
<path fill="#71B9E8" opacity="1.000000" stroke="none" 
	d="
M425.325775,228.864563 
	C425.051056,223.936615 425.180939,218.642776 424.891632,213.371964 
	C424.811127,211.905228 423.489746,210.506607 422.338440,209.016678 
	C423.091461,208.128769 424.243713,207.300919 426.574951,205.626022 
	C426.208038,213.996216 425.889984,221.251785 425.325775,228.864563 
z"/>
<path fill="#71B9E8" opacity="1.000000" stroke="none" 
	d="
M382.662354,213.953064 
	C382.201752,214.294342 381.403809,214.628174 380.268311,214.956146 
	C380.728851,214.615402 381.526917,214.280502 382.662354,213.953064 
z"/>
<path fill="#71B9E8" opacity="1.000000" stroke="none" 
	d="
M421.684326,208.948547 
	C421.474274,209.228989 420.954651,209.523697 420.125244,209.818817 
	C420.335236,209.533752 420.855042,209.248291 421.684326,208.948547 
z"/>
<path fill="#71B9E8" opacity="1.000000" stroke="none" 
	d="
M379.674683,214.944275 
	C379.458008,215.238586 378.922485,215.554977 378.067627,215.898453 
	C378.284119,215.605804 378.819946,215.286057 379.674683,214.944275 
z"/>
<path fill="#67BFEC" opacity="1.000000" stroke="none" 
	d="
M293.859558,130.156372 
	C293.409637,125.515442 295.511078,124.011436 299.451050,124.237007 
	C303.340790,124.459694 306.884888,125.081779 307.288422,129.954208 
	C307.625458,134.024246 305.464691,136.083878 301.608765,136.685928 
	C294.867493,137.738510 293.894501,136.983154 293.859558,130.156372 
z"/>
<path fill="#64C3EF" opacity="1.000000" stroke="none" 
	d="
M304.900726,110.018951 
	C304.900726,110.018951 305.089203,110.234497 305.073059,110.839111 
	C305.063110,112.664787 305.069305,113.885864 305.075500,115.106934 
	C305.075500,115.106934 305.041382,115.033813 304.873840,115.192017 
	C304.533356,115.655312 304.360382,115.960388 304.187408,116.265465 
	C304.187408,116.265465 304.325134,116.252846 303.912109,116.276886 
	C302.359497,116.500114 301.227112,116.786125 300.078949,116.880623 
	C297.602722,117.084419 294.708649,116.794434 295.327240,113.656410 
	C295.670868,111.913216 298.180298,110.192383 300.103027,109.310753 
	C301.334991,108.745857 303.277008,109.729492 304.900726,110.018951 
z"/>
<path fill="#72BEEA" opacity="1.000000" stroke="none" 
	d="
M304.780121,109.682678 
	C303.277008,109.729492 301.334991,108.745857 300.103027,109.310753 
	C298.180298,110.192383 295.670868,111.913216 295.327240,113.656410 
	C294.708649,116.794434 297.602722,117.084419 300.078949,116.880623 
	C301.227112,116.786125 302.359497,116.500114 303.919983,116.345596 
	C301.199402,117.212051 298.057831,118.033836 294.916290,118.855614 
	C294.435577,118.431480 293.954865,118.007355 293.474152,117.583221 
	C294.099243,114.424126 293.731873,110.078362 295.654327,108.470512 
	C297.276947,107.113457 301.556152,108.932922 304.780121,109.682678 
z"/>
<path fill="#72BEEA" opacity="1.000000" stroke="none" 
	d="
M305.336731,114.859009 
	C305.069305,113.885864 305.063110,112.664787 305.081665,110.982010 
	C305.270233,111.883904 305.434082,113.247498 305.336731,114.859009 
z"/>
<path fill="#72BEEA" opacity="1.000000" stroke="none" 
	d="
M304.461975,116.175446 
	C304.360382,115.960388 304.533356,115.655312 304.913422,115.184189 
	C304.992523,115.373901 304.864532,115.729668 304.461975,116.175446 
z"/>
<path fill="#64C3EF" opacity="1.000000" stroke="none" 
	d="
M530.271179,174.919449 
	C543.705627,179.159805 551.002991,193.620911 551.483215,207.933334 
	C551.597229,211.332718 549.119446,210.940857 546.994141,210.944031 
	C531.876953,210.966629 516.759827,210.963501 501.642639,210.967575 
	C496.204987,210.969055 490.767334,210.967819 484.702972,210.967819 
	C485.232941,196.407196 490.107391,184.962524 502.711121,176.970428 
	C503.904541,176.542221 504.449066,176.218948 504.993591,175.895691 
	C504.993591,175.895691 504.971222,175.964432 505.246704,175.914032 
	C506.043182,175.542038 506.564209,175.220474 507.085236,174.898926 
	C507.085236,174.898926 507.252167,174.762680 507.805908,174.842682 
	C515.663513,174.921616 522.967346,174.920532 530.271179,174.919449 
z"/>
<path fill="#71B9E8" opacity="1.000000" stroke="none" 
	d="
M529.970398,174.652390 
	C522.967346,174.920532 515.663513,174.921616 507.889404,174.910782 
	C514.760803,171.471527 522.204102,172.447372 529.970398,174.652390 
z"/>
<path fill="#71B9E8" opacity="1.000000" stroke="none" 
	d="
M504.671112,175.932770 
	C504.449066,176.218948 503.904541,176.542221 503.034546,176.891800 
	C503.255585,176.602036 503.802124,176.285965 504.671112,175.932770 
z"/>
<path fill="#71B9E8" opacity="1.000000" stroke="none" 
	d="
M506.765259,174.925232 
	C506.564209,175.220474 506.043182,175.542038 505.212769,175.901566 
	C505.417328,175.610199 505.931305,175.280884 506.765259,174.925232 
z"/>
<path fill="#67BFEC" opacity="1.000000" stroke="none" 
	d="
M476.825806,124.051758 
	C478.358551,120.322594 481.094543,118.251770 484.362061,119.792747 
	C486.625580,120.860252 489.235870,123.778870 489.407043,126.043060 
	C489.621979,128.886139 488.281281,132.752594 486.212128,134.654739 
	C482.936523,137.665939 477.867889,134.861984 476.649445,129.766724 
	C476.247589,128.086411 476.669861,126.209007 476.825806,124.051758 
z"/>
<path fill="#72BEEA" opacity="1.000000" stroke="none" 
	d="
M415.957214,140.331360 
	C416.385010,140.566895 416.823669,141.106613 417.092834,141.841003 
	C416.604889,141.568954 416.286469,141.102249 415.957214,140.331360 
z"/>
<path fill="#72BEEA" opacity="1.000000" stroke="none" 
	d="
M415.718811,116.141975 
	C415.658966,116.514931 415.339111,117.074791 414.725372,117.794556 
	C414.773956,117.412598 415.116364,116.870743 415.718811,116.141975 
z"/>
<path fill="#72BEEA" opacity="1.000000" stroke="none" 
	d="
M414.759033,138.357056 
	C415.046417,138.531281 415.443787,138.987915 415.905457,139.750580 
	C415.602844,139.584229 415.235931,139.111862 414.759033,138.357056 
z"/>
<path fill="#72BEEA" opacity="1.000000" stroke="none" 
	d="
M416.680084,114.664703 
	C416.748291,114.838341 416.566254,115.200523 416.170227,115.778732 
	C416.114105,115.614250 416.271973,115.233749 416.680084,114.664703 
z"/>
<path fill="#67BFEC" opacity="1.000000" stroke="none" 
	d="
M363.349609,122.636299 
	C366.294250,119.069511 369.671082,118.207062 373.307953,120.324310 
	C377.036591,122.494987 377.993988,126.086723 377.268860,130.227066 
	C376.577545,134.174454 374.096100,137.004150 370.343445,136.712036 
	C367.680115,136.504715 363.985260,134.570740 362.948578,132.371490 
	C361.749176,129.826996 362.959320,126.146706 363.349609,122.636299 
z"/>
<path fill="#67BFEC" opacity="1.000000" stroke="none" 
	d="
M326.892334,127.192047 
	C328.274658,121.269608 331.290436,118.682007 335.588318,119.334610 
	C340.113464,120.021729 342.775513,124.018890 342.248810,129.335541 
	C341.795074,133.915695 338.823212,136.924271 334.691467,136.986282 
	C329.890625,137.058350 327.246490,133.885025 326.892334,127.192047 
z"/>
<path fill="#62C4F1" opacity="1.000000" stroke="none" 
	d="
M566.992676,133.902008 
	C560.786194,138.792740 554.159546,136.983490 553.064758,130.356323 
	C552.377625,126.196259 552.837036,121.761230 557.238831,120.216423 
	C559.690918,119.355873 563.691772,119.925339 565.727661,121.494347 
	C569.742310,124.588219 569.855225,129.154312 566.992676,133.902008 
z"/>
<path fill="#1F427A" opacity="1.000000" stroke="none" 
	d="
M427.402893,113.210831 
	C427.806671,113.465752 428.058716,113.717941 428.564880,114.064346 
	C428.952789,122.936623 429.269867,131.717148 429.151550,140.491806 
	C429.080719,145.743988 424.761383,143.582123 421.548431,143.935211 
	C421.117004,143.889496 421.064178,143.954010 421.070068,143.507263 
	C421.129791,133.057510 421.183655,123.054527 421.237518,113.051544 
	C421.237518,113.051544 421.645203,113.021393 422.248779,113.007721 
	C424.237488,113.004944 425.622650,113.015831 427.007782,113.026718 
	C427.007782,113.026718 427.251129,113.208107 427.402893,113.210831 
z"/>
<path fill="#1F427A" opacity="1.000000" stroke="none" 
	d="
M422.997406,109.177299 
	C419.627899,107.271698 418.978180,104.217552 421.362732,101.669563 
	C422.531067,100.421112 426.288330,99.991852 427.738068,100.935959 
	C431.005737,103.063927 430.347626,106.155617 426.883423,108.939941 
	C425.133240,109.170135 424.065308,109.173721 422.997406,109.177299 
z"/>
<path fill="#72BEEA" opacity="1.000000" stroke="none" 
	d="
M420.951843,113.355217 
	C421.183655,123.054527 421.129791,133.057510 421.103729,143.531830 
	C420.753693,142.280258 420.036011,140.553497 420.055573,138.835129 
	C420.151184,130.441818 420.443481,122.050751 420.951843,113.355217 
z"/>
<path fill="#72BEEA" opacity="1.000000" stroke="none" 
	d="
M423.034454,109.439621 
	C424.065308,109.173721 425.133240,109.170135 426.602417,109.156174 
	C427.004028,110.180611 427.004395,111.215424 427.006287,112.638481 
	C425.622650,113.015831 424.237488,113.004944 422.440765,112.937607 
	C422.376617,111.821419 422.724060,110.761681 423.034454,109.439621 
z"/>
<path fill="#1D4078" opacity="1.000000" stroke="none" 
	d="
M435.547546,143.042511 
	C435.127472,133.312210 435.148010,123.694099 435.196106,113.619118 
	C438.113739,113.643112 441.003784,114.123978 443.638611,114.562363 
	C447.861572,113.942001 452.140503,112.720062 456.375427,112.857094 
	C460.666382,112.995934 463.443939,116.352303 463.675903,120.497673 
	C464.091125,127.919472 463.792908,135.381180 463.792908,142.756790 
	C456.850372,143.820984 455.954803,143.117355 455.895020,136.816086 
	C455.860291,133.153076 456.223602,129.443390 455.739960,125.844444 
	C455.469940,123.835304 454.124634,120.721336 452.743164,120.409142 
	C450.762482,119.961517 447.487091,120.971390 446.251556,122.534462 
	C444.549561,124.687721 443.769775,127.884026 443.439911,130.731384 
	C442.987305,134.637909 443.326721,138.636185 443.326721,143.154678 
	C440.505188,143.154678 438.246643,143.154678 435.547546,143.042511 
z"/>
<path fill="#62C4F1" opacity="1.000000" stroke="none" 
	d="
M466.997559,135.002350 
	C466.445007,134.534897 465.894897,134.065094 465.344757,133.595306 
	C465.634460,133.333420 465.924164,133.071518 466.213867,132.809601 
	C466.467346,133.336319 466.720825,133.863037 466.989624,134.692139 
	C467.004883,134.994507 467.000000,135.000000 466.997559,135.002350 
z"/>
</svg>